<svg id="Layer_1" data-name="Layer 1" xmlns="http://www.w3.org/2000/svg" xmlns:xlink="http://www.w3.org/1999/xlink" viewBox="0 0 200.1 166.88"><defs><style>.cls-1{stroke:#333;stroke-miterlimit:10;stroke-width:6px;fill:url(#linear-gradient);}.cls-2{fill:url(#linear-gradient-2);}.cls-3{fill:#0d0e0e;}.cls-4{opacity:0.7;isolation:isolate;fill:url(#linear-gradient-3);}</style><linearGradient id="linear-gradient" x1="100.05" y1="164.11" x2="100.05" y2="3.23" gradientUnits="userSpaceOnUse"><stop offset="0"/><stop offset="0.6" stop-color="#fff"/><stop offset="0.66" stop-color="#fff"/><stop offset="0.7" stop-color="#fafafa"/><stop offset="0.74" stop-color="#ececec"/><stop offset="0.78" stop-color="#d5d5d5"/><stop offset="0.83" stop-color="#b4b4b4"/><stop offset="0.88" stop-color="#8a8a8a"/><stop offset="0.93" stop-color="#575757"/><stop offset="0.98" stop-color="#1b1b1b"/><stop offset="1"/></linearGradient><linearGradient id="linear-gradient-2" x1="106.56" y1="83.76" x2="195.62" y2="83.76" gradientUnits="userSpaceOnUse"><stop offset="0"/><stop offset="1" stop-color="#fff"/></linearGradient><linearGradient id="linear-gradient-3" x1="100.54" y1="86.27" x2="100.54" y2="5.83" gradientUnits="userSpaceOnUse"><stop offset="0" stop-color="#fff" stop-opacity="0.6"/><stop offset="1" stop-color="#fff" stop-opacity="0"/></linearGradient></defs><path class="cls-1" d="M119.89,3.23H3V164.11H119.89c42.64,0,77.21-36,77.21-80.44S162.53,3.23,119.89,3.23Z" transform="translate(0 -0.23)"/><path class="cls-2" d="M118.4,5.83H106.56c42.64,0,77.21,34.89,77.21,77.93s-34.57,77.93-77.21,77.93H118.4c42.65,0,77.22-34.89,77.22-77.93S161.05,5.83,118.4,5.83Z" transform="translate(0 -0.23)"/><path class="cls-3" d="M69.14,75.25c-9.92-5.71-15.62.46-16.6,1.44S31.42,102.9,34.66,55c0,0-7.1,7.73-7.54,26.12S38.49,100.6,38.49,100.6s5.22,1.3,15.6-9.91S65.2,80,65.2,80s2.93-2.06,3.27,3.13,1.47,21-14.38,29.48-23.54-12.36-23.54-12.36,2,31.36,26.78,27.23,23.73-33,23.73-33S81.09,81.72,69.14,75.25Z" transform="translate(0 -0.23)"/><ellipse class="cls-3" cx="85.75" cy="59.99" rx="11.23" ry="8.42" transform="translate(-10.65 19.05) rotate(-12.08)"/><path class="cls-3" d="M98.55,78.25a8.59,8.59,0,0,0-17.13,1.31,8.45,8.45,0,0,0,.39,2s5,19.88,31.9,20.52C113.71,102.07,98.19,91,98.55,78.25Z" transform="translate(0 -0.23)"/><path class="cls-3" d="M146.05,66.74s-5.22-1.31-15.6,9.9-11.1,10.71-11.1,10.71-2.93,2.07-3.28-3.13-1.46-20.95,14.38-29.47S154,67.11,154,67.11s-2-31.37-26.78-27.23-23.73,33-23.73,33,0,12.77,11.91,19.23c9.92,5.71,15.63-.46,16.6-1.43s21.14-26.21,17.9,21.72c0,0,7.09-7.72,7.54-26.12S146.05,66.74,146.05,66.74Z" transform="translate(0 -0.23)"/><path class="cls-4" d="M195.62,86.27c0-44.43-33.87-80.44-75.65-80.44H5.46V86.27Z" transform="translate(0 -0.23)"/></svg>