<svg xmlns="http://www.w3.org/2000/svg" xmlns:xlink="http://www.w3.org/1999/xlink" viewBox="0 0 507.27 507.27"><defs><style>.cls-1{fill:#16171c;stroke:#000;stroke-miterlimit:10;}.cls-2{fill:#2c2d3d;}.cls-3{fill:url(#linear-gradient);}.cls-4{fill:url(#linear-gradient-2);}.cls-5{fill:url(#linear-gradient-3);}</style><linearGradient id="linear-gradient" x1="70.74" y1="207.69" x2="304.39" y2="456.44" gradientTransform="matrix(1, 0, 0, -1, 16.81, 529.63)" gradientUnits="userSpaceOnUse"><stop offset="0" stop-color="#2d85c6"/><stop offset="1" stop-color="#04bacc"/></linearGradient><linearGradient id="linear-gradient-2" x1="146.39" y1="136.63" x2="380.04" y2="385.38" xlink:href="#linear-gradient"/><linearGradient id="linear-gradient-3" x1="127.32" y1="154.54" x2="360.97" y2="403.29" xlink:href="#linear-gradient"/></defs><g id="Layer_3" data-name="Layer 3"><circle class="cls-1" cx="254.26" cy="255.58" r="250.81"/><path class="cls-2" d="M465.22,177.57a50.89,50.89,0,0,0-34.8-14.49c-4.89.71-10-.15-14.71,1.85-13.69,3-25.45,11.51-35.28,21.13-2.94,3.75-6.48,7-9.33,10.75-2.66,4.84-6.24,9.12-8.45,14.19-7.94,14.2-11.54,30.53-12.6,46.74.55,6.37.69,12.68,1.34,19,1.83,4.19.89,10.17,5.67,12.54,3.17.59,6.3-.85,9.11-2.35,7.32-5.1,13.69-11.58,19.6-18.4,7.35-6.13,12.72-14.28,19.59-20.85,3.87-3.1,6.55-7.21,10.34-10.21,7.05-7.33,15.23-13.4,23.69-19,6.65-3.56,14.14-6.44,21.87-6a34.29,34.29,0,0,1,23.46,13.86,87.42,87.42,0,0,1,12.73,24.43,230.5,230.5,0,0,0-7.17-37.65c-3.85-4.57-5.3-10.81-8.66-15.71C476.76,190.35,472,182.87,465.22,177.57Z" transform="translate(-2.37 -2.37)"/><path class="cls-2" d="M52.32,223.44c1.93,7.84,2.08,16.09,4.69,23.73,1.39,5.48,3,11.14,6,15.94,1.93,2.95,3.22,6.41,6.14,8.57,3,2.87,7.2,3.91,11.2,4.67a78.45,78.45,0,0,0,9-2.74c6.92-4.43,12.53-10.58,17.82-16.78,5-4.28,9.24-9.58,15-13,8.24-5.21,18-9.8,28-8,13.69.63,26.4,7,38.13,13.63,5.22,3.72,10.87,7,15.07,11.88C214.32,273.09,222.1,288,224.1,304c1.06,4.86,2.22,10,1,14.86.21,19.58-6.18,38.73-14.46,56.36-4.8,7.95-9.12,16.33-15.44,23.11-2.47,3.58-4.93,7.16-8.47,9.8-14.16,14.83-32.6,26.09-52.91,29.9l-20.12,1.23a70.76,70.76,0,0,1-14.42-2.82,232.34,232.34,0,0,0,68,48.82c116,54.78,254.43,5.16,309.21-110.82a67.7,67.7,0,0,0,1.5-7.71c.48-5.08,1.27-10.12.74-15.19,1.25-7.76-.28-15.68-.37-23.53-1.92-7.85-2.08-16.1-4.69-23.73-1.38-5.48-2.95-11.14-6-15.94-1.92-2.95-3.22-6.41-6.13-8.58-3-2.86-7.2-3.9-11.2-4.66a72.38,72.38,0,0,0-9,2.74c-6.92,4.43-12.53,10.58-17.83,16.78-5,4.29-9.24,9.59-15,13-8.25,5.26-18,9.86-28,8.06-13.7-.63-26.41-7-38.14-13.63-5.22-3.73-10.87-7-15.06-11.88-11-11.7-18.74-26.7-20.74-42.7-1-4.85-2.22-9.95-1-14.85-.21-19.58,6.18-38.73,14.47-56.36,4.79-7.95,9.11-16.34,15.43-23.12,2.47-3.58,4.93-7.16,8.47-9.79,14.17-14.84,32.61-26.1,52.91-29.91L417,112.25a67.25,67.25,0,0,1,19.21,4.51A231.63,231.63,0,0,0,266.43,42.92c-95.83,0-178.08,58-213.6,140.74a7.94,7.94,0,0,0-.16,1c-.48,5.09-1.27,10.12-.72,15.24C50.7,207.67,52.23,215.59,52.32,223.44Zm239.42,52.22c4.83,18.49,17.58,33.62,31.11,46.68,6.75,8,16,13.42,22.75,21.62a204.94,204.94,0,0,1-31.15-3.47,104.22,104.22,0,0,1-35.74-12.7c-6-3.79-12.65-6.87-17.65-12.06-8.78-6.7-15.94-15.21-21.94-24.31-6.5-10.76-12-22.72-12.67-35.37.56-4.59,1.19-9.39,3.35-13.53,5.39-9.9,16.7-15,27.58-15.25,5.57.91,11.44,1.35,16.44,4.2,7.78,2.57,12.76,9.71,15.21,17.06C289.74,257.61,289.45,266.85,291.74,275.66Zm-86.14-96a46.48,46.48,0,0,1,23-19.07c4.89-1.94,10-3.52,15.5-3.21,9.24-1.55,18.82,1.35,26.67,6.16,4.11,3.8,9,7.38,10.85,12.89a23.38,23.38,0,0,1-1.3,19.93c-3.61,8.36-11,14.61-18.92,18.79-6.06,2.86-12.45,5.56-19.26,5.17-7.23,1.31-14.64-.2-21.37-2.65-8.33-3.4-15.78-10-18.08-18.93C200,192.36,202.9,185.53,205.6,179.67Z" transform="translate(-2.37 -2.37)"/><path class="cls-2" d="M46,325.24a79.35,79.35,0,0,1-9.35-16,230.85,230.85,0,0,0,9.24,38.87,41.77,41.77,0,0,0,3.23,6c4.86,7.06,9.59,14.54,16.4,19.83a51,51,0,0,0,34.81,14.52c4.88-.72,10,.15,14.7-1.85,13.7-3,25.45-11.52,35.28-21.13,3-3.76,6.49-7,9.33-10.76,2.67-4.83,6.24-9.11,8.45-14.18,7.94-14.2,11.54-30.53,12.6-46.75-.55-6.36-.69-12.67-1.34-19-1.82-4.19-.88-10.17-5.67-12.53-3.11-.59-6.29.85-9.11,2.34-7.31,5.11-13.69,11.59-19.59,18.4-7.35,6.14-12.73,14.29-19.6,20.85-3.87,3.1-6.55,7.21-10.34,10.21-7,7.32-15.22,13.39-23.68,19-6.66,3.55-14.14,6.44-21.88,6A34.4,34.4,0,0,1,46,325.24Z" transform="translate(-2.37 -2.37)"/><path class="cls-3" d="M230.8,200.21c6.81.39,13.2-2.31,19.26-5.17,7.88-4.18,15.31-10.43,18.92-18.79a23.4,23.4,0,0,0,1.3-19.94c-1.85-5.51-6.74-9.09-10.85-12.89-7.86-4.81-17.43-7.71-26.67-6.16-5.47-.31-10.61,1.27-15.5,3.21a46.51,46.51,0,0,0-23,19.08c-2.7,5.86-5.64,12.69-2.93,19.08,2.3,8.91,9.75,15.53,18.08,18.93C216.16,200,223.57,201.52,230.8,200.21Z" transform="translate(-2.37 -2.37)"/><path class="cls-4" d="M311.53,302.21C298,289.15,285.25,274,280.42,255.53c-2.29-8.81-2-18.05-2.71-27.13-2.45-7.35-7.43-14.49-15.21-17.06-5-2.85-10.87-3.29-16.44-4.2-10.88.29-22.19,5.36-27.58,15.25-2.16,4.14-2.79,8.94-3.35,13.53.69,12.65,6.17,24.61,12.67,35.38,6,9.1,13.16,17.61,21.94,24.31,5,5.19,11.61,8.26,17.65,12.05a104,104,0,0,0,35.74,12.71,204.8,204.8,0,0,0,31.15,3.47C327.57,315.63,318.28,310.18,311.53,302.21Z" transform="translate(-2.37 -2.37)"/><path class="cls-5" d="M256,2.37C115.92,2.37,2.37,115.93,2.37,256S115.92,509.63,256,509.63,509.63,396.08,509.63,256,396.07,2.37,256,2.37ZM54.15,353.81c-6.81-5.29-11.54-12.76-16.4-19.82a39.89,39.89,0,0,1-3.23-6,230.85,230.85,0,0,1-9.24-38.87,78.89,78.89,0,0,0,9.35,16,34.33,34.33,0,0,0,23.48,13.81c7.74.44,15.22-2.45,21.88-6,8.46-5.6,16.63-11.68,23.68-19,3.79-3,6.47-7.1,10.34-10.21,6.87-6.56,12.25-14.7,19.6-20.85,5.9-6.81,12.28-13.29,19.59-18.4,2.82-1.49,6-2.92,9.11-2.34,4.78,2.37,3.85,8.34,5.67,12.53.64,6.33.78,12.65,1.34,19-1.06,16.22-4.67,32.55-12.61,46.75-2.21,5.08-5.78,9.36-8.45,14.18-2.83,3.75-6.38,7-9.33,10.77-9.83,9.6-21.58,18.11-35.28,21.13-4.66,2-9.82,1.13-14.69,1.85A51,51,0,0,1,54.15,353.81Zm412.54-7.18a69.06,69.06,0,0,1-1.5,7.71C410.4,470.33,272,520,156,465.17a232.11,232.11,0,0,1-68-48.83,69.34,69.34,0,0,0,14.41,2.82l20.13-1.23c20.31-3.81,38.75-15.07,52.9-29.9,3.54-2.64,6-6.22,8.47-9.79,6.33-6.78,10.64-15.16,15.45-23.12,8.27-17.63,14.66-36.78,14.46-56.35,1.22-4.9.06-10-1-14.86-2-16-9.78-30.94-20.73-42.69-4.2-4.92-9.85-8.16-15.07-11.88-11.73-6.62-24.44-13-38.13-13.63-10-1.8-19.76,2.79-28,8-5.76,3.42-10,8.72-15,13C90.56,242.91,85,249.06,78,253.49a77,77,0,0,1-9,2.73c-4-.75-8.17-1.8-11.2-4.67-2.92-2.16-4.21-5.61-6.14-8.56-3-4.8-4.61-10.47-6-15.94-2.61-7.64-2.76-15.89-4.69-23.73-.09-7.85-1.62-15.77-.37-23.54-.55-5.12.24-10.15.72-15.24a7.94,7.94,0,0,1,.16-1C77,80.83,159.28,22.79,255.11,22.79A231.67,231.67,0,0,1,424.88,96.63a67.92,67.92,0,0,0-19.21-4.51l-20.12,1.22c-20.3,3.81-38.74,15.07-52.91,29.91-3.54,2.63-6,6.22-8.47,9.79-6.32,6.78-10.64,15.17-15.43,23.12-8.29,17.63-14.68,36.78-14.47,56.36-1.22,4.9,0,10,1,14.85,2,16,9.78,31,20.74,42.71,4.19,4.91,9.84,8.14,15.06,11.88,11.73,6.6,24.44,13,38.14,13.63,10,1.79,19.75-2.8,28-8.06,5.76-3.41,10-8.71,15-13,5.29-6.2,10.91-12.35,17.82-16.78a72.9,72.9,0,0,1,9-2.74c4,.76,8.16,1.8,11.2,4.65,2.92,2.18,4.21,5.64,6.14,8.58,3,4.8,4.61,10.46,6,15.94,2.6,7.63,2.76,15.88,4.69,23.73.09,7.86,1.62,15.77.37,23.53C468,336.52,467.17,341.56,466.69,346.63ZM449.94,192.35c-7.73-.44-15.22,2.44-21.87,6-8.46,5.6-16.64,11.67-23.69,19-3.79,3-6.47,7.11-10.34,10.21-6.87,6.57-12.24,14.72-19.59,20.85-5.91,6.82-12.28,13.3-19.6,18.4-2.81,1.5-5.94,2.94-9.11,2.35-4.78-2.37-3.84-8.35-5.67-12.54-.65-6.32-.79-12.63-1.34-19,1.06-16.21,4.66-32.54,12.6-46.74,2.21-5.08,5.79-9.36,8.45-14.19,2.85-3.75,6.39-7,9.33-10.75,9.83-9.62,21.59-18.12,35.28-21.14,4.67-2,9.82-1.14,14.71-1.85a51,51,0,0,1,34.8,14.49c6.82,5.31,11.54,12.78,16.39,19.83,3.36,4.9,4.81,11.14,8.67,15.72a232.73,232.73,0,0,1,7.17,37.64,87.76,87.76,0,0,0-12.73-24.42A34.33,34.33,0,0,0,449.94,192.35Z" transform="translate(-2.37 -2.37)"/></g></svg>