<?xml version="1.0" encoding="UTF-8" standalone="no"?>
<svg
   viewBox="0 0 507.27 507.27"
   version="1.1"
   id="svg28"
   sodipodi:docname="big-favicon-kunity.svg"
   inkscape:version="1.1.2 (0a00cf5339, 2022-02-04, custom)"
   xmlns:inkscape="http://www.inkscape.org/namespaces/inkscape"
   xmlns:sodipodi="http://sodipodi.sourceforge.net/DTD/sodipodi-0.dtd"
   xmlns:xlink="http://www.w3.org/1999/xlink"
   xmlns="http://www.w3.org/2000/svg"
   xmlns:svg="http://www.w3.org/2000/svg">
  <sodipodi:namedview
     id="namedview30"
     pagecolor="#ffffff"
     bordercolor="#666666"
     borderopacity="1.0"
     inkscape:pageshadow="2"
     inkscape:pageopacity="0.0"
     inkscape:pagecheckerboard="0"
     showgrid="false"
     inkscape:zoom="0.93673146"
     inkscape:cx="460.64429"
     inkscape:cy="292.50646"
     inkscape:window-width="1446"
     inkscape:window-height="860"
     inkscape:window-x="48"
     inkscape:window-y="40"
     inkscape:window-maximized="1"
     inkscape:current-layer="svg28" />
  <defs
     id="defs11">
    <style
       id="style2">.cls-1{fill:#16171c;stroke:#000;stroke-miterlimit:10;}.cls-2{fill:#2c2d3d;}.cls-3{fill:url(#linear-gradient);}.cls-4{fill:url(#linear-gradient-2);}.cls-5{fill:url(#linear-gradient-3);}</style>
    <linearGradient
       id="linear-gradient"
       x1="70.74"
       y1="207.69"
       x2="304.39"
       y2="456.44"
       gradientTransform="matrix(1, 0, 0, -1, 16.81, 529.63)"
       gradientUnits="userSpaceOnUse">
      <stop
         offset="0"
         stop-color="#2d85c6"
         id="stop4" />
      <stop
         offset="1"
         stop-color="#04bacc"
         id="stop6" />
    </linearGradient>
    <linearGradient
       id="linear-gradient-2"
       x1="146.39"
       y1="136.63"
       x2="380.04"
       y2="385.38"
       xlink:href="#linear-gradient"
       gradientTransform="translate(-2.37,-2.37)" />
    <linearGradient
       id="linear-gradient-3"
       x1="127.32"
       y1="154.54"
       x2="360.97"
       y2="403.29"
       xlink:href="#linear-gradient"
       gradientTransform="translate(-2.37,-2.37)" />
  </defs>
  <circle
     class="cls-1"
     cx="254.2222"
     cy="255.463"
     r="235.76126"
     id="circle13"
     style="stroke-width:0.939999" />
  <path
     class="cls-2"
     d="M 450.29668,179.90584 A 47.836571,47.836571 0 0 0 417.5847,166.28525 c -4.5966,0.6674 -9.39999,-0.141 -13.82739,1.739 -12.86859,2.82 -23.92299,10.81939 -33.16318,19.86219 -2.7636,3.525 -6.0912,6.58 -8.7702,10.10499 -2.50039,4.5496 -5.86559,8.5728 -7.94299,13.3386 -7.4636,13.34799 -10.84759,28.69818 -11.84399,43.93557 0.517,5.98779 0.6486,11.91919 1.2596,17.85999 1.72019,3.9386 0.83659,9.55979 5.32979,11.78759 2.9798,0.5546 5.922,-0.799 8.5634,-2.209 6.88079,-4.794 12.86859,-10.88519 18.42399,-17.29599 6.90899,-5.76219 11.95679,-13.42319 18.41458,-19.59899 3.6378,-2.91399 6.157,-6.77739 9.7196,-9.59739 6.62699,-6.8902 14.31619,-12.59599 22.26858,-17.85999 6.251,-3.3464 13.2916,-6.0536 20.55779,-5.64 a 32.23258,32.23258 0 0 1 22.05239,13.0284 82.17475,82.17475 0 0 1 11.96619,22.96418 216.66987,216.66987 0 0 0 -6.73979,-35.39098 c -3.619,-4.29579 -4.982,-10.16139 -8.1404,-14.76739 -4.5684,-6.62699 -9.04279,-13.65819 -15.41599,-18.64019 z"
     id="path15"
     style="fill:#002a44;fill-opacity:1;stroke-width:0.939999" />
  <path
     class="cls-2"
     d="m 62.170916,223.02362 c 1.814198,7.36959 1.955198,15.12459 4.408597,22.30618 1.306599,5.1512 2.819998,10.4716 5.639996,14.9836 1.814199,2.77299 3.026799,6.02539 5.771597,8.05579 2.819998,2.6978 6.767996,3.6754 10.527994,4.3898 a 73.742955,73.742955 0 0 0 8.459994,-2.5756 c 6.504796,-4.1642 11.778196,-9.94519 16.750786,-15.77319 4.7,-4.0232 8.6856,-9.0052 14.1,-12.21999 7.74559,-4.8974 16.91999,-9.212 26.31998,-7.52 12.86859,0.5922 24.81598,6.58 35.84218,12.81219 4.9068,3.4968 10.21779,6.58 14.16579,11.1672 10.29299,11.04499 17.60619,25.06038 19.48619,40.10037 0.9964,4.5684 2.0868,9.4 0.94,13.96839 0.1974,18.40519 -5.8092,36.40618 -13.59239,52.97837 -4.512,7.473 -8.5728,15.35019 -14.5136,21.72339 -2.32179,3.3652 -4.63419,6.73039 -7.96179,9.21199 -13.31039,13.94019 -30.64398,24.52459 -49.73537,28.10599 l -18.91279,1.15619 a 66.51436,66.51436 0 0 1 -13.55479,-2.65079 218.39947,218.39947 0 0 0 63.91996,45.89077 c 109.03993,51.49317 239.16405,4.8504 290.65722,-104.17074 a 63.637961,63.637961 0 0 0 1.41,-7.24739 c 0.4512,-4.7752 1.1938,-9.5128 0.6956,-14.2786 1.175,-7.29439 -0.2632,-14.73919 -0.3478,-22.11818 -1.8048,-7.379 -1.9552,-15.13399 -4.40859,-22.30619 -1.2972,-5.15119 -2.773,-10.47159 -5.64,-14.98359 -1.8048,-2.773 -3.0268,-6.0254 -5.7622,-8.06519 -2.82,-2.6884 -6.76799,-3.666 -10.52799,-4.3804 a 68.037159,68.037159 0 0 0 -8.46,2.5756 c -6.50479,4.16419 -11.77819,9.94519 -16.76019,15.77319 -4.69999,4.03259 -8.68559,9.01459 -14.09999,12.21999 -7.75499,4.9444 -16.91999,9.26839 -26.31998,7.5764 -12.87799,-0.5922 -24.82539,-6.58 -35.85158,-12.8122 -4.9068,-3.50619 -10.21779,-6.57999 -14.15639,-11.16719 -10.33999,-10.99799 -17.61559,-25.09798 -19.49559,-40.13798 -0.94,-4.55899 -2.0868,-9.35299 -0.94,-13.95899 -0.1974,-18.40519 5.8092,-36.40618 13.60179,-52.97837 4.5026,-7.47299 8.5634,-15.35959 14.50419,-21.73278 2.3218,-3.3652 4.6342,-6.7304 7.9618,-9.2026 13.31979,-13.94959 30.65338,-24.53398 49.73537,-28.11538 l 18.94099,-1.1186 a 63.214962,63.214962 0 0 1 18.05739,4.2394 217.73207,217.73207 0 0 0 -159.59311,-69.409559 c -90.08014,0 -167.395095,54.519969 -200.783875,132.295519 a 7.4635955,7.4635955 0 0 0 -0.1504,0.94 c -0.451199,4.7846 -1.193799,9.51279 -0.676799,14.32559 -1.175,7.3038 0.2632,14.74859 0.3478,22.12759 z m 225.054664,49.08677 c 4.5402,17.38059 16.52519,31.60278 29.24338,43.87917 6.345,7.52 15.03999,12.61479 21.38499,20.32279 a 192.64348,192.64348 0 0 1 -29.28098,-3.2618 97.966741,97.966741 0 0 1 -33.59558,-11.93799 c -5.64,-3.5626 -11.891,-6.4578 -16.59099,-11.33639 -8.2532,-6.298 -14.98359,-14.2974 -20.62359,-22.85139 -6.11,-10.11439 -11.27999,-21.35679 -11.90979,-33.24778 0.5264,-4.3146 1.1186,-8.8266 3.14899,-12.71819 5.0666,-9.306 15.69799,-14.09999 25.92519,-14.33499 5.2358,0.8554 10.75359,1.269 15.45359,3.94799 7.31319,2.4158 11.99439,9.1274 14.29739,16.03639 0.6674,8.5352 0.3948,17.22079 2.5474,25.50219 z m -80.97155,-90.23995 a 43.691174,43.691174 0 0 1 21.61999,-17.92579 c 4.59659,-1.8236 9.39999,-3.30879 14.56999,-3.01739 8.68559,-1.457 17.69079,1.26899 25.06978,5.79039 3.8634,3.572 8.46,6.9372 10.19899,12.11659 a 21.977187,21.977187 0 0 1 -1.22199,18.73419 c -3.3934,7.8584 -10.34,13.7334 -17.78479,17.66259 -5.6964,2.6884 -11.703,5.2264 -18.10439,4.8598 -6.7962,1.2314 -13.76159,-0.188 -20.08779,-2.491 -7.8302,-3.196 -14.83319,-9.39999 -16.99519,-17.79419 -2.5286,-5.99719 0.1974,-12.41739 2.7354,-17.92579 z"
     id="path17"
     style="fill:#002a44;fill-opacity:1;stroke-width:0.939999" />
  <path
     class="cls-2"
     d="m 56.230119,318.71556 a 74.588955,74.588955 0 0 1 -8.788995,-15.03999 216.99887,216.99887 0 0 0 8.685595,36.53778 39.263776,39.263776 0 0 0 3.036198,5.63999 c 4.568398,6.6364 9.014595,13.6676 15.415991,18.64019 a 47.939971,47.939971 0 0 0 32.721382,13.64879 c 4.5872,-0.6768 9.39999,0.141 13.81799,-1.739 12.87799,-2.81999 23.92299,-10.82879 33.16318,-19.86218 2.82,-3.5344 6.1006,-6.58 8.77019,-10.1144 2.5098,-4.54019 5.8656,-8.56339 7.943,-13.32919 7.4636,-13.34799 10.84759,-28.69818 11.84399,-43.94497 -0.517,-5.9784 -0.6486,-11.90979 -1.2596,-17.85999 -1.7108,-3.9386 -0.8272,-9.5598 -5.32979,-11.77819 -2.9234,-0.5546 -5.9126,0.799 -8.5634,2.19959 -6.87139,4.8034 -12.86859,10.8946 -18.41459,17.29599 -6.90899,5.7716 -11.96619,13.4326 -18.42399,19.59899 -3.63779,2.914 -6.15699,6.7774 -9.71959,9.5974 -6.58,6.88079 -14.30679,12.58659 -22.259187,17.85999 -6.260396,3.33699 -13.291592,6.05359 -20.567187,5.63999 A 32.33598,32.33598 0 0 1 56.230119,318.71556 Z"
     id="path19"
     style="fill:#002a44;fill-opacity:1;stroke-width:0.939999" />
  <path
     class="cls-3"
     d="m 229.94201,201.18743 c 6.4014,0.3666 12.408,-2.1714 18.10439,-4.8598 7.4072,-3.92919 14.39139,-9.80419 17.78479,-17.66259 a 21.995987,21.995987 0 0 0 1.222,-18.74358 c -1.739,-5.1794 -6.33559,-8.5446 -10.19899,-12.1166 -7.3884,-4.52139 -16.38419,-7.24739 -25.06979,-5.79039 -5.14179,-0.2914 -9.97339,1.1938 -14.56999,3.0174 a 43.719373,43.719373 0 0 0 -21.61999,17.93518 c -2.53799,5.5084 -5.30159,11.9286 -2.75419,17.93519 2.16199,8.3754 9.16499,14.59819 16.99519,17.79419 6.34499,2.2936 13.31039,3.7224 20.10658,2.491 z"
     id="path21"
     style="fill:#ececec;stroke-width:0.939999" />
  <path
     class="cls-4"
     d="m 305.82817,297.06737 c -12.71819,-12.27639 -24.70319,-26.51738 -29.24338,-43.87917 -2.1526,-8.2814 -1.88,-16.96699 -2.5474,-25.50218 -2.303,-6.909 -6.9842,-13.6206 -14.29739,-16.0364 -4.7,-2.67899 -10.2178,-3.09259 -15.45359,-3.94799 -10.2272,0.2726 -20.85859,5.03839 -25.92519,14.33499 -2.0304,3.8916 -2.6226,8.40359 -3.149,12.71819 0.6486,11.89099 5.7998,23.13339 11.9098,33.25718 5.63999,8.554 12.37039,16.55339 20.62358,22.85139 4.7,4.87859 10.9134,7.76439 16.59099,11.32699 a 97.759941,97.759941 0 0 0 33.59558,11.94739 192.51188,192.51188 0 0 0 29.28098,3.2618 c -6.30739,-7.71739 -15.03999,-12.84039 -21.38498,-20.33219 z"
     id="path23"
     style="fill:#ececec;stroke-width:0.939999" />
  <path
     class="cls-5"
     d="m 253.63,15.217944 c -131.67512,0 -238.412056,106.746336 -238.412056,238.412056 0,131.66572 106.736936,238.41205 238.412056,238.41205 131.67512,0 238.41205,-106.73693 238.41205,-238.41205 C 492.04205,121.95488 385.29572,15.217944 253.63,15.217944 Z M 63.891114,345.57134 c -6.401396,-4.97259 -10.847593,-11.99439 -15.41599,-18.63079 a 37.496577,37.496577 0 0 1 -3.036198,-5.63999 216.99887,216.99887 0 0 1 -8.685595,-36.53778 74.156555,74.156555 0 0 0 8.788995,15.03999 32.27018,32.27018 0 0 0 22.071186,12.98139 c 7.275596,0.4136 14.306792,-2.303 20.567188,-5.63999 7.952395,-5.264 15.63219,-10.9792 22.25919,-17.85999 3.56259,-2.82 6.08179,-6.674 9.71959,-9.5974 6.4578,-6.16639 11.51499,-13.81799 18.42399,-19.59898 5.546,-6.4014 11.54319,-12.4926 18.41459,-17.29599 2.6508,-1.4006 5.63999,-2.7448 8.56339,-2.1996 4.4932,2.2278 3.619,7.83959 5.3298,11.77819 0.6016,5.9502 0.7332,11.89099 1.2596,17.85999 -0.9964,15.24679 -4.3898,30.59698 -11.85339,43.94497 -2.0774,4.7752 -5.4332,8.7984 -7.943,13.32919 -2.6602,3.525 -5.9972,6.58 -8.77019,10.1238 -9.2402,9.02399 -20.28519,17.02339 -33.16318,19.86219 -4.3804,1.88 -9.2308,1.0622 -13.808595,1.739 a 47.939971,47.939971 0 0 1 -32.721381,-13.6582 z m 387.787366,-6.74919 a 64.916361,64.916361 0 0 1 -1.41,7.24739 C 398.76591,455.10008 268.66999,501.78985 159.63006,450.24968 a 218.18327,218.18327 0 0 1 -63.919965,-45.90017 65.17956,65.17956 0 0 0 13.545395,2.6508 l 18.92219,-1.1562 c 19.09138,-3.5814 36.42497,-14.16579 49.72597,-28.10599 3.32759,-2.48159 5.63999,-5.84679 7.96179,-9.20259 5.9502,-6.3732 10.00159,-14.25039 14.52299,-21.73279 7.7738,-16.57219 13.78039,-34.57318 13.59239,-52.96896 1.1468,-4.606 0.0564,-9.4 -0.94,-13.9684 -1.87999,-15.03999 -9.19319,-29.08358 -19.48618,-40.12857 -3.948,-4.6248 -9.259,-7.6704 -14.1658,-11.1672 -11.02619,-6.22279 -22.97358,-12.21999 -35.84217,-12.81219 -9.4,-1.692 -18.57439,2.6226 -26.31999,7.52 -5.41439,3.2148 -9.39999,8.19679 -14.09999,12.21999 -5.010196,5.828 -10.236593,11.60899 -16.816589,15.77319 a 72.379956,72.379956 0 0 1 -8.459995,2.5662 c -3.759998,-0.705 -7.679795,-1.692 -10.527994,-4.3898 -2.744798,-2.0304 -3.957397,-5.27339 -5.771596,-8.04639 -2.819998,-4.512 -4.333397,-9.8418 -5.639997,-14.98359 -2.453398,-7.1816 -2.594398,-14.9366 -4.408597,-22.30619 -0.0846,-7.379 -1.522799,-14.82379 -0.3478,-22.12759 -0.516999,-4.81279 0.2256,-9.54099 0.6768,-14.32559 a 7.4635955,7.4635955 0 0 1 0.1504,-0.94 C 85.370101,88.970299 162.71325,34.412732 252.7934,34.412732 a 217.76967,217.76967 0 0 1 159.5837,69.409558 63.844761,63.844761 0 0 0 -18.05739,-4.239397 l -18.91278,1.146797 c -19.08199,3.5814 -36.41558,14.16579 -49.73537,28.11539 -3.3276,2.47219 -5.64,5.84679 -7.9618,9.20259 -5.9408,6.3732 -10.00159,14.25979 -14.50419,21.73279 -7.7926,16.57219 -13.79919,34.57318 -13.60179,52.97836 -1.1468,4.606 0,9.4 0.94,13.959 1.88,15.03999 9.19319,29.13998 19.49559,40.14737 3.93859,4.6154 9.24959,7.6516 14.15639,11.16719 11.02619,6.204 22.97358,12.22 35.85157,12.8122 9.4,1.6826 18.56499,-2.632 26.31999,-7.5764 5.4144,-3.2054 9.39999,-8.18739 14.09999,-12.21999 4.9726,-5.828 10.25539,-11.60899 16.75079,-15.77319 a 68.525958,68.525958 0 0 1 8.46,-2.5756 c 3.75999,0.7144 7.67039,1.692 10.52799,4.371 2.7448,2.0492 3.9574,5.30159 5.7716,8.06519 2.81999,4.512 4.33339,9.8324 5.63999,14.98359 2.444,7.1722 2.5944,14.92719 4.4086,22.30619 0.0846,7.3884 1.5228,14.82379 0.3478,22.11819 0.5358,4.77519 -0.2444,9.51279 -0.6956,14.27859 z M 435.93349,193.79904 c -7.2662,-0.4136 -14.30679,2.29359 -20.55779,5.63999 -7.95239,5.264 -15.64159,10.9698 -22.26859,17.85999 -3.56259,2.82 -6.08179,6.6834 -9.71959,9.5974 -6.4578,6.17579 -11.50559,13.83679 -18.41459,19.59898 -5.55539,6.4108 -11.54319,12.502 -18.42399,17.29599 -2.6414,1.41 -5.58359,2.7636 -8.56339,2.209 -4.4932,-2.2278 -3.6096,-7.84899 -5.3298,-11.78759 -0.611,-5.9408 -0.7426,-11.87219 -1.2596,-17.85999 0.9964,-15.23739 4.3804,-30.58758 11.844,-43.93557 2.07739,-4.7752 5.44259,-8.7984 7.94299,-13.3386 2.679,-3.52499 6.0066,-6.57999 8.77019,-10.10499 9.2402,-9.04279 20.29459,-17.03279 33.16318,-19.87159 4.3898,-1.88 9.2308,-1.0716 13.8274,-1.739 a 47.939971,47.939971 0 0 1 32.71198,13.6206 c 6.41079,4.99139 10.84759,12.01319 15.40659,18.64018 3.1584,4.606 4.52139,10.4716 8.14979,14.7768 a 218.76607,218.76607 0 0 1 6.7398,35.38157 82.49435,82.49435 0 0 0 -11.96619,-22.95478 32.27018,32.27018 0 0 0 -22.05239,-13.02839 z"
     id="path25"
     style="fill:#ececec;stroke-width:0.939999" />
</svg>
