<svg xmlns="http://www.w3.org/2000/svg" xmlns:xlink="http://www.w3.org/1999/xlink" id="svg28" viewBox="0 0 507.27 507.27"><defs id="defs11"><linearGradient id="linear-gradient" x1="70.74" x2="304.39" y1="207.69" y2="456.44" gradientTransform="matrix(1 0 0 -1 16.81 529.63)" gradientUnits="userSpaceOnUse"><stop id="stop4" offset="0" stop-color="#2d85c6"/><stop id="stop6" offset="1" stop-color="#04bacc"/></linearGradient><linearGradient xlink:href="#linear-gradient" id="linear-gradient-2" x1="146.39" x2="380.04" y1="136.63" y2="385.38" gradientTransform="translate(-2.37 -2.37)"/><linearGradient xlink:href="#linear-gradient" id="linear-gradient-3" x1="127.32" x2="360.97" y1="154.54" y2="403.29" gradientTransform="translate(-2.37 -2.37)"/><style id="style2">.cls-2{fill:#2c2d3d}</style></defs><circle id="circle13" cx="254.222" cy="255.463" r="235.761" style="fill:#16171c;stroke:#000;stroke-miterlimit:10;stroke-width:.939999"/><path id="path15" d="M450.297 179.906a47.84 47.84 0 0 0-32.712-13.62c-4.597.667-9.4-.142-13.828 1.738-12.868 2.82-23.923 10.82-33.163 19.862-2.763 3.525-6.091 6.58-8.77 10.105-2.5 4.55-5.866 8.573-7.943 13.339-7.464 13.348-10.848 28.698-11.844 43.936.517 5.987.649 11.919 1.26 17.86 1.72 3.938.836 9.56 5.33 11.787 2.98.555 5.921-.799 8.563-2.209 6.88-4.794 12.868-10.885 18.424-17.296 6.909-5.762 11.957-13.423 18.414-19.599 3.638-2.914 6.157-6.777 9.72-9.597 6.627-6.89 14.316-12.596 22.268-17.86 6.251-3.347 13.292-6.054 20.558-5.64a32.23 32.23 0 0 1 22.053 13.028 82.2 82.2 0 0 1 11.966 22.964 216.7 216.7 0 0 0-6.74-35.39c-3.619-4.296-4.982-10.162-8.14-14.768-4.569-6.627-9.043-13.658-15.416-18.64" class="cls-2" style="fill:#002a44;fill-opacity:1;stroke-width:.939999"/><path id="path17" d="M62.17 223.024c1.815 7.37 1.956 15.124 4.41 22.306 1.306 5.151 2.82 10.471 5.64 14.983 1.814 2.773 3.026 6.026 5.771 8.056 2.82 2.698 6.768 3.676 10.528 4.39a74 74 0 0 0 8.46-2.576c6.505-4.164 11.778-9.945 16.75-15.773 4.7-4.023 8.686-9.005 14.1-12.22 7.746-4.897 16.92-9.212 26.32-7.52 12.87.592 24.817 6.58 35.843 12.812 4.907 3.497 10.218 6.58 14.166 11.168 10.293 11.045 17.606 25.06 19.486 40.1.996 4.568 2.087 9.4.94 13.968.197 18.406-5.81 36.407-13.592 52.979-4.512 7.473-8.573 15.35-14.514 21.723-2.322 3.365-4.634 6.73-7.962 9.212-13.31 13.94-30.644 24.525-49.735 28.106l-18.913 1.156a66.5 66.5 0 0 1-13.555-2.65 218.4 218.4 0 0 0 63.92 45.89c109.04 51.493 239.164 4.85 290.657-104.17a64 64 0 0 0 1.41-7.248c.452-4.775 1.194-9.513.696-14.278 1.175-7.295-.263-14.74-.348-22.119-1.805-7.379-1.955-15.134-4.408-22.306-1.298-5.151-2.773-10.471-5.64-14.983-1.805-2.773-3.027-6.026-5.763-8.066-2.82-2.688-6.768-3.666-10.528-4.38a68 68 0 0 0-8.46 2.576c-6.504 4.164-11.778 9.945-16.76 15.773-4.7 4.032-8.685 9.014-14.1 12.22-7.755 4.944-16.92 9.268-26.32 7.576-12.878-.592-24.825-6.58-35.851-12.812-4.907-3.506-10.218-6.58-14.157-11.167-10.34-10.998-17.615-25.098-19.495-40.138-.94-4.56-2.087-9.353-.94-13.96-.198-18.404 5.809-36.405 13.602-52.978 4.502-7.473 8.563-15.36 14.504-21.732 2.322-3.366 4.634-6.73 7.962-9.203 13.32-13.95 30.653-24.534 49.735-28.115l18.94-1.119a63.2 63.2 0 0 1 18.058 4.24 217.73 217.73 0 0 0-159.593-69.41c-90.08 0-167.395 54.52-200.784 132.295a7.5 7.5 0 0 0-.15.94c-.451 4.785-1.194 9.513-.677 14.326-1.175 7.304.263 14.749.348 22.128m225.056 49.086c4.54 17.381 16.525 31.603 29.243 43.88 6.345 7.52 15.04 12.614 21.385 20.322a192.6 192.6 0 0 1-29.281-3.261 98 98 0 0 1-33.596-11.938c-5.64-3.563-11.89-6.458-16.59-11.337-8.254-6.298-14.984-14.297-20.624-22.851-6.11-10.115-11.28-21.357-11.91-33.248.526-4.315 1.119-8.827 3.149-12.718 5.067-9.306 15.698-14.1 25.925-14.335 5.236.855 10.754 1.269 15.454 3.948 7.313 2.416 11.994 9.127 14.297 16.036.668 8.535.395 17.221 2.548 25.502m-80.972-90.24a43.7 43.7 0 0 1 21.62-17.925c4.597-1.824 9.4-3.31 14.57-3.018 8.686-1.457 17.69 1.27 25.07 5.79 3.863 3.573 8.46 6.938 10.199 12.117a21.98 21.98 0 0 1-1.222 18.734c-3.394 7.859-10.34 13.734-17.785 17.663-5.696 2.688-11.703 5.226-18.104 4.86-6.797 1.231-13.762-.188-20.088-2.491-7.83-3.196-14.833-9.4-16.995-17.794-2.529-5.998.197-12.418 2.735-17.926z" class="cls-2" style="fill:#002a44;fill-opacity:1;stroke-width:.939999"/><path id="path19" d="M56.23 318.716a74.6 74.6 0 0 1-8.789-15.04 217 217 0 0 0 8.686 36.537 39 39 0 0 0 3.036 5.64c4.568 6.637 9.015 13.668 15.416 18.64a47.94 47.94 0 0 0 32.721 13.65c4.587-.677 9.4.14 13.818-1.74 12.878-2.82 23.923-10.828 33.163-19.862 2.82-3.534 6.101-6.58 8.77-10.114 2.51-4.54 5.866-8.564 7.944-13.33 7.463-13.347 10.847-28.698 11.844-43.944-.517-5.979-.649-11.91-1.26-17.86-1.71-3.939-.827-9.56-5.33-11.779-2.923-.554-5.912.8-8.563 2.2-6.872 4.803-12.869 10.895-18.415 17.296-6.909 5.772-11.966 13.433-18.424 19.599-3.638 2.914-6.157 6.777-9.72 9.597-6.58 6.881-14.306 12.587-22.259 17.86-6.26 3.337-13.291 6.054-20.567 5.64a32.34 32.34 0 0 1-22.07-12.99" class="cls-2" style="fill:#002a44;fill-opacity:1;stroke-width:.939999"/><path id="path21" d="M229.942 201.187c6.401.367 12.408-2.171 18.104-4.86 7.408-3.929 14.392-9.804 17.785-17.662a22 22 0 0 0 1.222-18.744c-1.739-5.179-6.335-8.544-10.199-12.116-7.388-4.522-16.384-7.248-25.07-5.79-5.141-.292-9.973 1.193-14.57 3.017a43.72 43.72 0 0 0-21.62 17.935c-2.538 5.508-5.301 11.929-2.754 17.935 2.162 8.376 9.165 14.598 16.995 17.794 6.345 2.294 13.31 3.723 20.107 2.491" style="fill:#ececec;stroke-width:.939999"/><path id="path23" d="M305.828 297.067c-12.718-12.276-24.703-26.517-29.243-43.879-2.153-8.281-1.88-16.967-2.548-25.502-2.303-6.909-6.984-13.62-14.297-16.036-4.7-2.68-10.218-3.093-15.454-3.948-10.227.272-20.858 5.038-25.925 14.335-2.03 3.891-2.622 8.403-3.149 12.718.649 11.89 5.8 23.133 11.91 33.257 5.64 8.554 12.37 16.553 20.624 22.851 4.7 4.879 10.913 7.765 16.59 11.327a97.8 97.8 0 0 0 33.596 11.948 192.5 192.5 0 0 0 29.281 3.262c-6.307-7.718-15.04-12.84-21.385-20.333" style="fill:#ececec;stroke-width:.939999"/><path id="path25" d="M253.63 15.218c-131.675 0-238.412 106.746-238.412 238.412S121.955 492.042 253.63 492.042 492.042 385.305 492.042 253.63 385.296 15.218 253.63 15.218M63.891 345.57c-6.401-4.972-10.847-11.994-15.416-18.63a37.5 37.5 0 0 1-3.036-5.64 217 217 0 0 1-8.686-36.538 74.2 74.2 0 0 0 8.79 15.04 32.27 32.27 0 0 0 22.07 12.981c7.276.414 14.307-2.303 20.568-5.64 7.952-5.264 15.632-10.979 22.259-17.86 3.562-2.82 6.082-6.674 9.72-9.597 6.457-6.167 11.514-13.818 18.423-19.6 5.546-6.4 11.544-12.492 18.415-17.295 2.65-1.4 5.64-2.745 8.563-2.2 4.494 2.228 3.62 7.84 5.33 11.778.602 5.95.733 11.891 1.26 17.86-.997 15.247-4.39 30.597-11.854 43.945-2.077 4.776-5.433 8.799-7.943 13.33-2.66 3.525-5.997 6.58-8.77 10.123-9.24 9.024-20.285 17.024-33.163 19.863-4.38 1.88-9.23 1.062-13.809 1.739a47.94 47.94 0 0 1-32.72-13.659m387.787-6.749a65 65 0 0 1-1.41 7.248C398.766 455.1 268.67 501.79 159.63 450.25a218.2 218.2 0 0 1-63.92-45.9 65.2 65.2 0 0 0 13.545 2.65l18.923-1.156c19.091-3.581 36.425-14.166 49.726-28.106 3.327-2.481 5.64-5.847 7.961-9.202 5.95-6.374 10.002-14.25 14.523-21.733 7.774-16.572 13.78-34.573 13.593-52.97 1.147-4.605.056-9.4-.94-13.968-1.88-15.04-9.193-29.083-19.486-40.128-3.948-4.625-9.26-7.67-14.166-11.167-11.026-6.223-22.974-12.22-35.842-12.813-9.4-1.692-18.575 2.623-26.32 7.52-5.415 3.215-9.4 8.197-14.1 12.22-5.01 5.828-10.237 11.61-16.817 15.774a72 72 0 0 1-8.46 2.566c-3.76-.705-7.68-1.692-10.528-4.39-2.745-2.03-3.957-5.273-5.771-8.046-2.82-4.512-4.334-9.842-5.64-14.984-2.454-7.182-2.595-14.937-4.41-22.306-.084-7.38-1.522-14.824-.347-22.128-.517-4.813.226-9.54.677-14.325a7.5 7.5 0 0 1 .15-.94C85.371 88.97 162.713 34.413 252.793 34.413a217.77 217.77 0 0 1 159.584 69.41 63.9 63.9 0 0 0-18.057-4.24l-18.913 1.147c-19.082 3.581-36.416 14.165-49.735 28.115-3.328 2.472-5.64 5.847-7.962 9.203-5.941 6.373-10.002 14.26-14.504 21.732-7.793 16.573-13.8 34.574-13.602 52.979-1.147 4.606 0 9.4.94 13.959 1.88 15.04 9.193 29.14 19.495 40.147 3.939 4.616 9.25 7.652 14.157 11.167 11.026 6.204 22.973 12.22 35.851 12.813 9.4 1.682 18.565-2.632 26.32-7.577 5.415-3.205 9.4-8.187 14.1-12.22 4.973-5.828 10.256-11.609 16.751-15.773a69 69 0 0 1 8.46-2.576c3.76.715 7.67 1.692 10.528 4.371 2.745 2.05 3.957 5.302 5.772 8.066 2.82 4.512 4.333 9.832 5.64 14.983 2.444 7.172 2.594 14.927 4.408 22.306.085 7.389 1.523 14.824.348 22.119.536 4.775-.244 9.512-.696 14.278M435.933 193.8c-7.266-.414-14.306 2.294-20.557 5.64-7.953 5.264-15.642 10.97-22.269 17.86-3.562 2.82-6.082 6.683-9.72 9.597-6.457 6.176-11.505 13.837-18.414 19.6-5.555 6.41-11.543 12.501-18.424 17.295-2.641 1.41-5.584 2.764-8.563 2.21-4.494-2.228-3.61-7.85-5.33-11.788-.611-5.941-.743-11.872-1.26-17.86.997-15.238 4.38-30.588 11.844-43.936 2.078-4.775 5.443-8.798 7.943-13.338 2.68-3.525 6.007-6.58 8.77-10.105 9.24-9.043 20.295-17.033 33.164-19.872 4.39-1.88 9.23-1.072 13.827-1.739a47.94 47.94 0 0 1 32.712 13.62c6.41 4.992 10.847 12.014 15.406 18.64 3.159 4.607 4.522 10.472 8.15 14.778a219 219 0 0 1 6.74 35.381 82.5 82.5 0 0 0-11.966-22.955 32.27 32.27 0 0 0-22.053-13.028" style="fill:#ececec;stroke-width:.939999"/></svg>