<svg xmlns="http://www.w3.org/2000/svg" xml:space="preserve" width="24" height="24" viewBox="0 0 6.35 6.35"><defs><radialGradient id="a" cx="0" cy="0" r="1" fx="0" fy="0" gradientTransform="matrix(0 16.5 -16.5 0 9 .75)" gradientUnits="userSpaceOnUse" spreadMethod="pad"><stop offset="0" style="stop-opacity:1;stop-color:#fafafa"/><stop offset="1" style="stop-opacity:1;stop-color:#b0b0b0"/></radialGradient><clipPath id="b" clipPathUnits="userSpaceOnUse"><path d="M0 0h19v19H0Z"/></clipPath></defs><path d="M7.453.801a1 1 0 0 1-.258.035 10 10 0 0 0-1.648.266q-3.492.831-4.406 4.3a13.9 13.9 0 0 0-.387 3.59q-.034 1.712.336 3.383c.578 2.477 2.113 3.992 4.594 4.543 1.351.277 2.714.383 4.089.309a11.7 11.7 0 0 0 3.575-.618q2.145-.784 3.101-2.859a9 9 0 0 0 .672-2.488q.204-1.845.086-3.696-.09-1.471-.566-2.867-.844-2.315-3.121-3.254a10.3 10.3 0 0 0-2.836-.636A24 24 0 0 0 7.453.801" style="fill:url(#a);fill-rule:evenodd;stroke:none" transform="scale(.35278)"/><g clip-path="url(#b)" opacity=".226" transform="scale(.35278)"><path d="M10.043 3a.42.42 0 0 0-.277.125l-1.36 1.359-.031.032-.023.035-.024.035v.008a.1.1 0 0 0-.016.031q-.003.007-.007.02l-.012.039a.44.44 0 0 0 0 .203l.012.035v.004q.004.007.007.019.004.005.008.016.013.03.032.055l.023.035.004.004.012.011q.004.011.015.016v.004q.005.006.016.012l1.344 1.343a.417.417 0 0 0 .597 0 .424.424 0 0 0 0-.597l-.566-.567a3.8 3.8 0 0 1 2.883 2.739 3.81 3.81 0 0 1-1.637 4.199.424.424 0 0 0 .457.715 4.66 4.66 0 0 0 1.996-5.137 4.62 4.62 0 0 0-1.582-2.422 4.67 4.67 0 0 0-2.226-.973l.675-.671a.43.43 0 0 0 0-.602.44.44 0 0 0-.32-.125M6.711 5.008a.4.4 0 0 0-.211.066 4.66 4.66 0 0 0-.414 7.559 4.66 4.66 0 0 0 2.226.972l-.675.672a.425.425 0 0 0 0 .598.417.417 0 0 0 .597 0l1.344-1.34.016-.015v-.004q.01-.006.015-.012c.004-.008.012-.012.016-.02.02-.019.031-.043.047-.066v-.004a.03.03 0 0 1 .008-.016q.01-.022.015-.039l.012-.039c0-.008.004-.015.004-.019q.004-.022.008-.043v-.082q-.004-.017-.008-.039c0-.004-.004-.012-.004-.02l-.012-.039q-.005-.018-.015-.035v-.004a1.592 1.592 0 0 0-.055-.09h-.004l-.012-.015-.015-.016-1.36-1.359a.424.424 0 0 0-.597 0 .43.43 0 0 0 0 .601l.566.567a3.808 3.808 0 0 1-1.246-6.938.427.427 0 0 0 .129-.586.43.43 0 0 0-.344-.195zm4.133 1.972a.4.4 0 0 0-.278.114c-.754.847-1.507 1.707-2.261 2.562l-.86-.75a.4.4 0 0 0-.289-.125.4.4 0 0 0-.398.399.44.44 0 0 0 .082.238h-.004l1.137 1.418a.526.526 0 0 0 .804-.008h.004l2.383-3.215a.4.4 0 0 0 .078-.23.4.4 0 0 0-.398-.403" style="fill:none;stroke:#000;stroke-width:.749999;stroke-linecap:round;stroke-linejoin:round;stroke-miterlimit:4;stroke-dasharray:none;stroke-opacity:.289973"/></g><path d="M6.086 12.633a4.7 4.7 0 0 0 2.715 1.015.42.42 0 0 0 .437-.402.417.417 0 0 0-.402-.441A3.81 3.81 0 0 1 5.32 9.988a3.81 3.81 0 0 1 1.637-4.199.427.427 0 0 0 .129-.586.427.427 0 0 0-.586-.129 4.66 4.66 0 0 0-2 5.133h.004c.262.981.828 1.82 1.582 2.426" style="fill:#069;fill-opacity:1;fill-rule:nonzero;stroke:none" transform="scale(.35278)"/><path d="M9.719 13.219a.4.4 0 0 1-.125.297.42.42 0 0 1-.598 0L7.637 12.16a.43.43 0 0 1 0-.601.424.424 0 0 1 .597 0l1.36 1.359a.4.4 0 0 1 .125.301" style="fill:#069;fill-opacity:1;fill-rule:nonzero;stroke:none" transform="scale(.35278)"/><path d="M9.297 12.793a.425.425 0 0 1 .297.723l-1.36 1.359a.417.417 0 0 1-.597 0 .425.425 0 0 1 0-.598l1.359-1.359a.43.43 0 0 1 .301-.125M11.914 5.367a4.7 4.7 0 0 0-2.715-1.015.42.42 0 0 0-.437.402.417.417 0 0 0 .402.441 3.81 3.81 0 0 1 3.516 2.817 3.81 3.81 0 0 1-1.637 4.199.427.427 0 0 0-.129.586.427.427 0 0 0 .586.129 4.66 4.66 0 0 0 2-5.133h-.004a4.65 4.65 0 0 0-1.582-2.426" style="fill:#069;fill-opacity:1;fill-rule:nonzero;stroke:none" transform="scale(.35278)"/><path d="M8.281 4.781c0-.105.039-.215.125-.297a.42.42 0 0 1 .598 0l1.359 1.356a.43.43 0 0 1 0 .601.424.424 0 0 1-.597 0l-1.36-1.359a.4.4 0 0 1-.125-.301" style="fill:#069;fill-opacity:1;fill-rule:nonzero;stroke:none" transform="scale(.35278)"/><path d="M8.703 5.207a.425.425 0 0 1-.297-.723l1.36-1.359a.417.417 0 0 1 .597 0 .425.425 0 0 1 0 .598L9.004 5.082a.43.43 0 0 1-.301.125" style="fill:#069;fill-opacity:1;fill-rule:nonzero;stroke:none" transform="scale(.35278)"/><path d="M10.84 6.98a.4.4 0 0 0-.274.11c-.754.851-1.507 1.711-2.261 2.566l-.86-.754v.004a.398.398 0 0 0-.687.274.44.44 0 0 0 .082.238h-.004l1.137 1.418a.526.526 0 0 0 .804-.008l2.387-3.215a.4.4 0 0 0 .078-.234.4.4 0 0 0-.402-.399" style="fill:#35e298;fill-opacity:1;fill-rule:nonzero;stroke:none" transform="scale(.35278)"/></svg>