<svg xmlns="http://www.w3.org/2000/svg" id="Layer_1" data-name="Layer 1" viewBox="0 0 200.1 166.88"><defs><linearGradient id="linear-gradient" x1="100.05" x2="100.05" y1="164.11" y2="3.23" gradientUnits="userSpaceOnUse"><stop offset="0"/><stop offset=".6" stop-color="#fff"/><stop offset=".66" stop-color="#fff"/><stop offset=".7" stop-color="#fafafa"/><stop offset=".74" stop-color="#ececec"/><stop offset=".78" stop-color="#d5d5d5"/><stop offset=".83" stop-color="#b4b4b4"/><stop offset=".88" stop-color="#8a8a8a"/><stop offset=".93" stop-color="#575757"/><stop offset=".98" stop-color="#1b1b1b"/><stop offset="1"/></linearGradient><linearGradient id="linear-gradient-2" x1="106.56" x2="195.62" y1="83.76" y2="83.76" gradientUnits="userSpaceOnUse"><stop offset="0"/><stop offset="1" stop-color="#fff"/></linearGradient><linearGradient id="linear-gradient-3" x1="100.54" x2="100.54" y1="86.27" y2="5.83" gradientUnits="userSpaceOnUse"><stop offset="0" stop-color="#fff" stop-opacity=".6"/><stop offset="1" stop-color="#fff" stop-opacity="0"/></linearGradient><style>.cls-3{fill:#0d0e0e}</style></defs><path d="M119.89 3.23H3v160.88h116.89c42.64 0 77.21-36 77.21-80.44S162.53 3.23 119.89 3.23Z" style="stroke:#333;stroke-miterlimit:10;stroke-width:6px;fill:url(#linear-gradient)" transform="translate(0 -.23)"/><path d="M118.4 5.83h-11.84c42.64 0 77.21 34.89 77.21 77.93s-34.57 77.93-77.21 77.93h11.84c42.65 0 77.22-34.89 77.22-77.93S161.05 5.83 118.4 5.83" style="fill:url(#linear-gradient-2)" transform="translate(0 -.23)"/><path d="M69.14 75.02c-9.92-5.71-15.62.46-16.6 1.44s-21.12 26.21-17.88-21.69c0 0-7.1 7.73-7.54 26.12s11.37 19.48 11.37 19.48 5.22 1.3 15.6-9.91S65.2 79.77 65.2 79.77s2.93-2.06 3.27 3.13 1.47 21-14.38 29.48-23.54-12.36-23.54-12.36 2 31.36 26.78 27.23 23.73-33 23.73-33 .03-12.76-11.92-19.23" class="cls-3"/><ellipse cx="85.75" cy="59.99" class="cls-3" rx="11.23" ry="8.42" transform="rotate(-12.08 84.695 59.851)"/><path d="M98.55 78.02a8.59 8.59 0 0 0-17.13 1.31 8.5 8.5 0 0 0 .39 2s5 19.88 31.9 20.52c0-.01-15.52-11.08-15.16-23.83M146.05 66.51s-5.22-1.31-15.6 9.9-11.1 10.71-11.1 10.71-2.93 2.07-3.28-3.13-1.46-20.95 14.38-29.47S154 66.88 154 66.88s-2-31.37-26.78-27.23-23.73 33-23.73 33 0 12.77 11.91 19.23c9.92 5.71 15.63-.46 16.6-1.43s21.14-26.21 17.9 21.72c0 0 7.09-7.72 7.54-26.12s-11.39-19.54-11.39-19.54" class="cls-3"/><path d="M195.62 86.27c0-44.43-33.87-80.44-75.65-80.44H5.46v80.44Z" style="opacity:.7;isolation:isolate;fill:url(#linear-gradient-3)" transform="translate(0 -.23)"/></svg>