<svg xmlns="http://www.w3.org/2000/svg" xml:space="preserve" width="24" height="24" viewBox="0 0 24 24"><defs><clipPath id="e" clipPathUnits="userSpaceOnUse"><path d="M0 0h19v19H0Z"/></clipPath><clipPath id="f" clipPathUnits="userSpaceOnUse"><path d="M0 0h19v19H0Z"/></clipPath><clipPath id="g" clipPathUnits="userSpaceOnUse"><path d="M7.453.801a1 1 0 0 1-.258.035 10 10 0 0 0-1.648.266q-3.492.831-4.406 4.3a13.9 13.9 0 0 0-.387 3.59q-.034 1.712.336 3.383c.578 2.477 2.113 3.992 4.594 4.543 1.351.277 2.714.383 4.089.309a11.7 11.7 0 0 0 3.575-.618q2.145-.784 3.101-2.859a9 9 0 0 0 .672-2.488q.204-1.845.086-3.696-.09-1.471-.566-2.867-.844-2.315-3.121-3.254a10.3 10.3 0 0 0-2.836-.636A24 24 0 0 0 7.453.801" clip-rule="evenodd"/></clipPath><clipPath id="c" clipPathUnits="userSpaceOnUse"><path d="M-.045-.545h1.09v1.09h-1.09z"/></clipPath><radialGradient id="j" cx="0" cy="0" r="1" gradientTransform="matrix(0 22 -22 0 12 1)" gradientUnits="userSpaceOnUse"><stop offset="0" stop-color="#fafafa" style="stop-color:#fafafa;stop-opacity:.60232943"/><stop offset="1" stop-color="#b0b0b0" style="stop-color:#fffff6;stop-opacity:0"/></radialGradient><radialGradient id="d" cx="0" cy="0" r="1" fx="0" fy="0" gradientUnits="userSpaceOnUse" spreadMethod="pad"><stop offset="0" style="stop-opacity:.60233463;stop-color:#fff"/><stop offset="1" style="stop-opacity:0;stop-color:#fff"/></radialGradient><radialGradient id="i" cx="0" cy="0" r="1" fx="0" fy="0" gradientUnits="userSpaceOnUse" spreadMethod="pad"><stop offset="0" style="stop-opacity:1;stop-color:#fafafa"/><stop offset="1" style="stop-opacity:1;stop-color:#fffff6"/></radialGradient><mask id="h" width="1" height="1" x="0" y="0" maskUnits="userSpaceOnUse"><g clip-path="url(#c)"><path d="M-.045-.545h1.09v1.09h-1.09z" style="fill:url(#d);stroke:none"/></g></mask></defs><path d="M9.07.75q-.808 0-1.617.051a1 1 0 0 1-.258.035 10 10 0 0 0-1.648.266q-3.492.831-4.406 4.3a13.9 13.9 0 0 0-.387 3.59q-.034 1.712.336 3.383.41 1.745 1.453 2.852L15.266 2.555a5.7 5.7 0 0 0-1.746-1.11 10.3 10.3 0 0 0-2.836-.636A22 22 0 0 0 9.07.75" style="fill:#2493b0;fill-opacity:1;fill-rule:nonzero;stroke:none" transform="scale(1.33333)"/><path d="m5.859 11.922-3.32 3.305q1.17 1.25 3.145 1.691c1.351.277 2.714.383 4.089.309q.339-.007.676-.032z" style="fill:#4b5a5a;fill-opacity:1;fill-rule:nonzero;stroke:none" transform="scale(1.33333)"/><path d="m15.266 2.555-9.407 9.367 4.59 5.273a11.8 11.8 0 0 0 2.899-.586q2.145-.784 3.101-2.859a9 9 0 0 0 .672-2.488q.204-1.845.086-3.696-.09-1.471-.566-2.867-.468-1.283-1.375-2.144" style="fill:#ba4874;fill-opacity:1;fill-rule:nonzero;stroke:none" transform="scale(1.33333)"/><path d="M2.895 15.574c.738.645 1.664 1.094 2.789 1.344 1.351.277 2.714.383 4.089.309a11.7 11.7 0 0 0 3.575-.618 5.5 5.5 0 0 0 1.765-1.035z" style="fill:#32383d;fill-opacity:1;fill-rule:nonzero;stroke:none" transform="scale(1.33333)"/><path d="M13.582 9a4.581 4.581 0 1 1-9.164 0 4.581 4.581 0 1 1 9.164 0" style="fill:#002a44;fill-opacity:1;fill-rule:nonzero;stroke:none" transform="scale(1.33333)"/><path d="M10.316 6.777a1.66 1.66 0 0 1 .891-.504c.113 0 .227-.015.336-.019q.196.017.379.098c.187.113.351.261.48.437.192.254.321.547.379.856q.013.162.008.32a1.3 1.3 0 0 1-.156-.285 1.5 1.5 0 0 0-.274-.325.848.848 0 0 0-.832-.214c-.23.062-.437.183-.593.359-.051.062-.11.121-.157.18-.047.086-.101.156-.144.242a1.9 1.9 0 0 0-.211.785c.012.109.012.211.019.32.036.075.016.172.094.215a.27.27 0 0 0 .156-.039c.121-.094.231-.195.332-.312.125-.106.211-.239.332-.352.067-.051.11-.121.176-.172q.182-.18.399-.32a.65.65 0 0 1 .367-.098c.16.02.301.106.394.231.133.187.227.398.278.621.027.117.015.234.031.355a3.9 3.9 0 0 1-.203 1.156 1.7 1.7 0 0 1-.184.376c-.027.031-.043.074-.078.085q.011-.118.039-.23a.9.9 0 0 0 .008-.25 2 2 0 0 0 0-.395c-.031-.128-.035-.269-.078-.398a.9.9 0 0 0-.106-.27.5.5 0 0 0-.101-.144.35.35 0 0 0-.188-.078 1 1 0 0 0-.14.047 1.4 1.4 0 0 0-.301.277 1.8 1.8 0 0 1-.266.215.68.68 0 0 1-.472.144 1.5 1.5 0 0 1-.641-.23 1.2 1.2 0 0 1-.254-.199 1.3 1.3 0 0 1-.344-.715.6.6 0 0 1-.015-.25 2.23 2.23 0 0 1 .504-1.336.35.35 0 0 1 .136-.184M7.676 11.223a1.67 1.67 0 0 1-.891.504c-.113 0-.226.015-.336.019a1 1 0 0 1-.379-.098 1.6 1.6 0 0 1-.48-.441 2 2 0 0 1-.379-.855 2 2 0 0 1-.012-.321 1.2 1.2 0 0 1 .16.285q.114.187.274.332a.88.88 0 0 0 .84.207c.23-.058.433-.183.593-.355.051-.066.106-.121.153-.184q.08-.116.144-.238c.125-.242.199-.512.211-.785-.008-.109-.008-.215-.019-.324-.032-.071-.016-.168-.094-.211a.28.28 0 0 0-.156.039 2 2 0 0 0-.328.312c-.125.102-.215.239-.336.352-.067.051-.106.117-.172.172a2.7 2.7 0 0 1-.399.32.68.68 0 0 1-.367.098.57.57 0 0 1-.394-.235 1.7 1.7 0 0 1-.278-.621c-.027-.113-.015-.23-.031-.351a4 4 0 0 1 .203-1.16q.071-.194.184-.372c.027-.031.039-.074.078-.082-.008.075-.024.153-.039.227a1 1 0 0 0-.012.254 2 2 0 0 0 0 .394c.031.129.039.27.078.395a.9.9 0 0 0 .106.27.4.4 0 0 0 .101.144q.082.065.188.078a.7.7 0 0 0 .14-.047c.118-.078.215-.175.301-.285.078-.082.164-.152.254-.219a.67.67 0 0 1 .473-.14c.226.027.449.105.64.226q.142.087.254.203c.188.196.309.446.348.711a.6.6 0 0 1 .015.25 2.2 2.2 0 0 1-.242.946c-.074.136-.16.269-.258.39a.46.46 0 0 1-.136.196M8.379 7.066a.86.86 0 0 1 .699.059.5.5 0 0 1 .18.219.38.38 0 0 1-.02.336.7.7 0 0 1-.3.308.88.88 0 0 1-.68.043.51.51 0 0 1-.32-.316.38.38 0 0 1 .054-.324.7.7 0 0 1 .387-.325M8.398 8.438a.54.54 0 0 1 .461-.254.7.7 0 0 1 .278.074.42.42 0 0 1 .254.285c0 .152.011.305.043.457.101.305.281.574.523.781.117.133.27.227.383.364a4 4 0 0 1-.52-.059 1.7 1.7 0 0 1-.597-.211 1.3 1.3 0 0 1-.297-.203 1.7 1.7 0 0 1-.371-.41 1.3 1.3 0 0 1-.211-.598.7.7 0 0 1 .054-.226" style="fill:#fff;fill-opacity:1;fill-rule:nonzero;stroke:none" transform="scale(1.33333)"/><g clip-path="url(#e)" opacity=".815" transform="scale(1.33333)"><g clip-path="url(#f)" opacity=".815"><g clip-path="url(#g)"><g mask="url(#h)" transform="matrix(0 16.5 -16.5 0 9 .75)"><path d="M7.453.801a1 1 0 0 1-.258.035 10 10 0 0 0-1.648.266q-3.492.831-4.406 4.3a13.9 13.9 0 0 0-.387 3.59q-.034 1.712.336 3.383c.578 2.477 2.113 3.992 4.594 4.543 1.351.277 2.714.383 4.089.309a11.7 11.7 0 0 0 3.575-.618q2.145-.784 3.101-2.859a9 9 0 0 0 .672-2.488q.204-1.845.086-3.696-.09-1.471-.566-2.867-.844-2.315-3.121-3.254a10.3 10.3 0 0 0-2.836-.636A24 24 0 0 0 7.453.801" style="fill:url(#i);fill-rule:evenodd;stroke:none"/></g></g></g></g><path d="M5.152 10.387c1.75 1.754 2.895 3.453 2.551 3.797-.344.343-2.043-.801-3.797-2.555-1.75-1.754-2.894-3.453-2.551-3.797.344-.34 2.043.801 3.797 2.555" style="fill:#e56353;fill-opacity:1;fill-rule:nonzero;stroke:none" transform="scale(1.33333)"/><path d="M8.016 13.531a.24.24 0 0 1 0 .34l-.625.625a.243.243 0 0 1-.336 0 .24.24 0 0 1 0-.34l.625-.625a.243.243 0 0 1 .336 0" style="fill:#64798a;fill-opacity:1;fill-rule:nonzero;stroke:none" transform="scale(1.33333)"/><path d="M7.395 14.492s-.204 1.75 2.515 2.207a.15.15 0 0 0 .098-.164s-.977-.801-.797-1.332.129-1.238-1.172-1.34z" style="fill:#dc8744;fill-opacity:1;fill-rule:nonzero;stroke:none" transform="scale(1.33333)"/><path fill="url(#j)" fill-rule="evenodd" d="M9.94 1.068q-.165.048-.344.046-1.114.09-2.2.355Q2.739 2.576 1.52 7.205a18.5 18.5 0 0 0-.515 4.786q-.046 2.283.447 4.51 1.16 4.95 6.128 6.058 2.7.555 5.452.412a15.6 15.6 0 0 0 4.766-.825q2.859-1.05 4.135-3.812a11.9 11.9 0 0 0 .893-3.32q.276-2.457.115-4.924a14.3 14.3 0 0 0-.756-3.824q-1.12-3.09-4.158-4.34a13.5 13.5 0 0 0-3.78-.847 32 32 0 0 0-4.307-.011" clip-rule="evenodd" style="opacity:.81471;mix-blend-mode:screen;fill:url(#j);stroke-width:1"/></svg>