<svg xmlns="http://www.w3.org/2000/svg" xml:space="preserve" width="24" height="24"><defs><clipPath id="f" clipPathUnits="userSpaceOnUse"><path d="M0 0h19v19H0Z"/></clipPath><clipPath id="g" clipPathUnits="userSpaceOnUse"><path d="M0 0h19v19H0Z"/></clipPath><clipPath id="h" clipPathUnits="userSpaceOnUse"><path d="M7.453.801a1 1 0 0 1-.258.035 10 10 0 0 0-1.648.266q-3.492.831-4.406 4.3a13.9 13.9 0 0 0-.387 3.59q-.034 1.712.336 3.383c.578 2.477 2.113 3.992 4.594 4.543 1.351.277 2.714.383 4.089.309a11.7 11.7 0 0 0 3.575-.618q2.145-.784 3.101-2.859a9 9 0 0 0 .672-2.488q.204-1.845.086-3.696-.09-1.471-.566-2.867-.844-2.315-3.121-3.254a10.3 10.3 0 0 0-2.836-.636A24 24 0 0 0 7.453.801" clip-rule="evenodd"/></clipPath><clipPath id="c" clipPathUnits="userSpaceOnUse"><path d="M-.045-.545h1.09v1.09h-1.09z"/></clipPath><radialGradient id="d" cx="0" cy="0" r="1" fx="0" fy="0" gradientUnits="userSpaceOnUse" spreadMethod="pad"><stop offset="0" style="stop-opacity:.60233463;stop-color:#fff"/><stop offset="1" style="stop-opacity:0;stop-color:#fff"/></radialGradient><radialGradient id="j" cx="0" cy="0" r="1" fx="0" fy="0" gradientUnits="userSpaceOnUse" spreadMethod="pad"><stop offset="0" style="stop-opacity:1;stop-color:#fafafa"/><stop offset="1" style="stop-opacity:1;stop-color:#fffff6"/></radialGradient><mask id="i" width="1" height="1" x="0" y="0" maskUnits="userSpaceOnUse"><g clip-path="url(#c)"><path d="M-.045-.545h1.09v1.09h-1.09z" style="fill:url(#d);stroke:none"/></g></mask></defs><g clip-path="url(#f)" opacity=".815" transform="translate(-208.91 51.436)scale(9.99414)"><g clip-path="url(#g)" opacity=".815"><g clip-path="url(#h)"><g mask="url(#i)" transform="matrix(0 16.5 -16.5 0 9 .75)"><path d="M7.453.801a1 1 0 0 1-.258.035 10 10 0 0 0-1.648.266q-3.492.831-4.406 4.3a13.9 13.9 0 0 0-.387 3.59q-.034 1.712.336 3.383c.578 2.477 2.113 3.992 4.594 4.543 1.351.277 2.714.383 4.089.309a11.7 11.7 0 0 0 3.575-.618q2.145-.784 3.101-2.859a9 9 0 0 0 .672-2.488q.204-1.845.086-3.696-.09-1.471-.566-2.867-.844-2.315-3.121-3.254a10.3 10.3 0 0 0-2.836-.636A24 24 0 0 0 7.453.801" style="fill:url(#j);fill-rule:evenodd;stroke:none"/></g></g></g></g><path d="M-20.09 32c0 16.521-13.389 29.91-29.91 29.91S-79.91 48.52-79.91 32-66.52 2.09-50 2.09-20.09 15.48-20.09 32" style="fill:#fff;fill-opacity:1;fill-rule:nonzero;stroke:none;stroke-width:6.52756" transform="translate(30.389 .231)scale(.36778)"/><path d="M-23.047 32c0 14.888-12.065 26.953-26.953 26.953S-76.953 46.888-76.953 32-64.888 5.047-50 5.047-23.047 17.112-23.047 32" style="fill:#002a44;fill-opacity:1;fill-rule:nonzero;stroke:none;stroke-width:5.88239" transform="translate(30.389 .231)scale(.36778)"/><g style="fill:#214478;fill-opacity:1"><path d="M0 0c1.786-.65 3.807-1.172 5.956-1.559 4.304-.783 9.088-1.065 14-.978 4.92.089 9.992.536 15.054 1.267 5.065.725 10.125 1.731 15.071 2.939 2.467.612 4.931 1.248 7.31 1.973l.911.277.868.279c.578.187 1.154.365 1.735.57 1.163.389 2.309.803 3.447 1.219a136 136 0 0 1 12.858 5.572 137 137 0 0 1 11.055 6.113 123 123 0 0 1 5.3 3.442C89.544 44.58 69.104 62.439 44.491 62.439c-27.501 0-49.795-22.294-49.795-49.795 0-3.627.391-7.163 1.128-10.57C-3.087 1.314-1.647.596 0 0" style="fill:#214478;fill-opacity:1;fill-rule:nonzero;stroke:none" transform="matrix(.19788 0 0 -.20147 3.204 14.731)"/></g><path d="M-61.854-7.475a10.24 10.24 0 0 1 5.492-3.106c.697 0 1.4-.093 2.072-.118.795.074 1.59.265 2.336.605a10.2 10.2 0 0 1 2.959 2.693 12.6 12.6 0 0 1 2.336 5.277c.05.672.074 1.32.05 1.973a8 8 0 0 1-.962-1.757 9 9 0 0 0-1.69-2.003 5.5 5.5 0 0 0-3.612-1.517c-.505 0-1.035.05-1.516.197-1.418.383-2.694 1.128-3.656 2.213-.314.383-.678.746-.968 1.11-.29.53-.622.962-.887 1.492a11.7 11.7 0 0 0-1.301 4.839c.074.672.074 1.3.117 1.973.222.462.099 1.06.58 1.325.339.025.678-.074.961-.24a14 14 0 0 0 2.047-1.924c.77-.653 1.3-1.473 2.047-2.17.413-.314.678-.746 1.085-1.06a15 15 0 0 1 2.46-1.973 4 4 0 0 1 2.262-.604 3.59 3.59 0 0 1 2.428 1.424c.82 1.153 1.4 2.454 1.714 3.828.167.722.093 1.443.191 2.189-.05 2.435-.48 4.839-1.251 7.126-.29.82-.654 1.59-1.134 2.318-.167.191-.266.456-.481.524.049-.48.123-.962.24-1.418a5.4 5.4 0 0 0 .05-1.541c.073-.82.073-1.64 0-2.435-.192-.79-.216-1.658-.481-2.454a5.5 5.5 0 0 0-.654-1.664 2.8 2.8 0 0 0-.622-.888 2.17 2.17 0 0 0-1.16-.48 5 5 0 0 0-.862.29 8.9 8.9 0 0 0-1.856 1.707c-.505.505-1.06.937-1.64 1.325a4.2 4.2 0 0 1-2.91.888 9.4 9.4 0 0 1-3.95-1.418 7 7 0 0 1-1.567-1.227 8.03 8.03 0 0 1-2.12-4.407 3.7 3.7 0 0 1-.093-1.541c.074-2.022.58-4.02 1.517-5.826.456-.844.986-1.664 1.59-2.41.142-.456.432-.845.839-1.135M-78.129 19.933a10.3 10.3 0 0 1-5.492 3.107c-.697 0-1.394.092-2.072.117a6.5 6.5 0 0 1-2.336-.604 10 10 0 0 1-2.959-2.719 12.4 12.4 0 0 1-2.336-5.27c-.074-.654-.099-1.301-.074-1.98a7.4 7.4 0 0 1 .986 1.758 9.2 9.2 0 0 0 1.69 2.046c.985.944 2.286 1.449 3.66 1.474a4.5 4.5 0 0 0 1.517-.198 7.5 7.5 0 0 0 3.656-2.188c.314-.407.653-.746.943-1.134.333-.481.623-.962.888-1.467a11.7 11.7 0 0 0 1.3-4.84c-.049-.672-.049-1.325-.117-1.997-.197-.438-.098-1.036-.58-1.3a1.7 1.7 0 0 0-.96.24c-.747.58-1.425 1.202-2.023 1.923-.77.629-1.325 1.473-2.071 2.17-.413.314-.653.721-1.06 1.06a16.4 16.4 0 0 1-2.46 1.973 4.16 4.16 0 0 1-2.262.604 3.53 3.53 0 0 1-2.43-1.449 10.7 10.7 0 0 1-1.713-3.828c-.166-.696-.092-1.418-.191-2.163.074-2.435.48-4.84 1.251-7.151.29-.796.672-1.566 1.135-2.294.166-.19.24-.456.48-.505-.049.462-.147.943-.24 1.4a5.5 5.5 0 0 0-.074 1.565 13.3 13.3 0 0 0 0 2.429c.191.795.24 1.664.48 2.435.149.604.34 1.159.654 1.664.142.333.358.648.623.888.339.265.721.432 1.159.48.314-.073.598-.166.863-.289.727-.48 1.325-1.079 1.855-1.757.481-.505 1.011-.937 1.566-1.35a4.12 4.12 0 0 1 2.916-.863 9.56 9.56 0 0 1 3.945 1.393c.58.364 1.11.771 1.566 1.252A8.03 8.03 0 0 1-74.3 8.948a3.7 3.7 0 0 1 .093 1.54c-.043 2.029-.573 4.026-1.492 5.833a16 16 0 0 1-1.59 2.404 2.8 2.8 0 0 1-.839 1.208M-73.795-5.693c1.418-.505 2.984-.358 4.309.364.48.339.87.795 1.11 1.35.29.672.24 1.418-.124 2.071a4.43 4.43 0 0 1-1.85 1.899 5.4 5.4 0 0 1-4.191.265c-.918-.315-1.664-1.036-1.973-1.948a2.36 2.36 0 0 1 .333-1.998c.506-.943 1.375-1.64 2.386-2.003M-73.678 2.765c.604-.993 1.69-1.566 2.842-1.566a4.5 4.5 0 0 1 1.714.456c.77.29 1.344.962 1.565 1.757 0 .937.068 1.88.266 2.817a10.77 10.77 0 0 0 3.224 4.815c.72.82 1.664 1.4 2.36 2.244a24 24 0 0 1-3.205-.364 10.5 10.5 0 0 1-3.68-1.3 8 8 0 0 1-1.831-1.252 10.3 10.3 0 0 1-2.287-2.528 7.96 7.96 0 0 1-1.3-3.686c.024-.48.141-.937.332-1.393" style="fill:#fff;fill-opacity:1;fill-rule:nonzero;stroke:none;stroke-width:6.16454" transform="translate(40.837 9.433)scale(.41216)"/></svg>