<?xml version="1.0" encoding="UTF-8" standalone="no"?>
<svg
   xmlns:dc="http://purl.org/dc/elements/1.1/"
   xmlns:cc="http://creativecommons.org/ns#"
   xmlns:rdf="http://www.w3.org/1999/02/22-rdf-syntax-ns#"
   xmlns:svg="http://www.w3.org/2000/svg"
   xmlns="http://www.w3.org/2000/svg"
   xmlns:xlink="http://www.w3.org/1999/xlink"
   xmlns:sodipodi="http://sodipodi.sourceforge.net/DTD/sodipodi-0.dtd"
   xmlns:inkscape="http://www.inkscape.org/namespaces/inkscape"
   height="64"
   width="64"
   version="1.1"
   id="svg69"
   sodipodi:docname="big-plasma-theme.svg"
   inkscape:version="0.92.4 (5da689c313, 2019-01-14)">
  <metadata
     id="metadata75">
    <rdf:RDF>
      <cc:Work
         rdf:about="">
        <dc:format>image/svg+xml</dc:format>
        <dc:type
           rdf:resource="http://purl.org/dc/dcmitype/StillImage" />
        <dc:title></dc:title>
      </cc:Work>
    </rdf:RDF>
  </metadata>
  <defs
     id="defs73" />
  <sodipodi:namedview
     pagecolor="#ffffff"
     bordercolor="#666666"
     borderopacity="1"
     objecttolerance="10"
     gridtolerance="10"
     guidetolerance="10"
     inkscape:pageopacity="0"
     inkscape:pageshadow="2"
     inkscape:window-width="1366"
     inkscape:window-height="699"
     id="namedview71"
     showgrid="false"
     inkscape:zoom="1.726111"
     inkscape:cx="-67.334382"
     inkscape:cy="3.8665542"
     inkscape:window-x="0"
     inkscape:window-y="0"
     inkscape:window-maximized="1"
     inkscape:current-layer="svg69" />
  <linearGradient
     id="a"
     gradientUnits="userSpaceOnUse"
     x1="42.798412"
     x2="12.000011"
     y1="5.3412638"
     y2="31.355106">
    <stop
       offset="0"
       stop-color="#1abc9c"
       id="stop2" />
    <stop
       offset="1"
       stop-color="#2980b9"
       id="stop4" />
  </linearGradient>
  <linearGradient
     id="b"
     gradientUnits="userSpaceOnUse"
     x1="29.85095"
     x2="54.317608"
     y1="22.348568"
     y2="28.5063">
    <stop
       offset="0"
       stop-color="#cc4a5e"
       id="stop7" />
    <stop
       offset="1"
       stop-color="#aa478a"
       id="stop9" />
  </linearGradient>
  <linearGradient
     id="c"
     gradientUnits="userSpaceOnUse"
     x1="24.393862"
     x2="20.645596"
     xlink:href="#d"
     y1="41.223652"
     y2="25.343178" />
  <linearGradient
     id="d">
    <stop
       offset="0"
       stop-color="#334545"
       id="stop13" />
    <stop
       offset="1"
       stop-color="#536161"
       id="stop15" />
  </linearGradient>
  <linearGradient
     id="e"
     gradientTransform="matrix(-1,0,0,1,839.14285,-40.00001)"
     gradientUnits="userSpaceOnUse"
     x1="431.57141"
     x2="439.57141"
     xlink:href="#d"
     y1="568.79803"
     y2="562.79803" />
  <linearGradient
     id="f"
     gradientTransform="matrix(-0.91666628,0,0,0.91666628,428.69029,-492.4813)"
     gradientUnits="userSpaceOnUse"
     x1="406.53735"
     x2="423.31955"
     xlink:href="#d"
     y1="581.87024"
     y2="572.67786" />
  <linearGradient
     id="g"
     gradientTransform="matrix(-0.91666628,0,0,0.91666628,448.69029,-492.4813)"
     gradientUnits="userSpaceOnUse"
     x1="423.05438"
     x2="431.22452"
     xlink:href="#d"
     y1="572.33411"
     y2="566.76562" />
  <linearGradient
     id="h"
     gradientTransform="matrix(-0.91666628,0,0,0.91666628,428.69029,-492.4813)"
     gradientUnits="userSpaceOnUse"
     x1="431.3129"
     x2="440.63208"
     xlink:href="#d"
     y1="577.10217"
     y2="571.44531" />
  <linearGradient
     id="i"
     gradientTransform="matrix(-0.91666628,0,0,0.91666628,428.69029,-492.4813)"
     gradientUnits="userSpaceOnUse"
     x1="430.56738"
     x2="423.74994"
     xlink:href="#d"
     y1="577.36243"
     y2="591.32782" />
  <linearGradient
     id="j"
     gradientUnits="userSpaceOnUse"
     x1="393.57144"
     x2="407.57144"
     y1="522.79797"
     y2="536.79797"
     gradientTransform="translate(-384.57143,-515.798)">
    <stop
       offset="0"
       stop-color="#292c2f"
       id="stop23" />
    <stop
       offset="1"
       stop-opacity="0"
       id="stop25" />
  </linearGradient>
  <linearGradient
     id="k"
     gradientUnits="userSpaceOnUse"
     x2="0"
     y1="536.79797"
     y2="522.79797"
     gradientTransform="translate(-384.57143,-515.798)">
    <stop
       offset="0"
       stop-color="#eff0f1"
       id="stop28" />
    <stop
       offset="1"
       stop-color="#fcfcfc"
       id="stop30" />
  </linearGradient>
  <g
     id="g53"
     transform="matrix(1.3333323,0,0,1.7111082,-512.76149,-860.05289)">
    <path
       inkscape:connector-curvature="0"
       style="fill:url(#a)"
       id="path33"
       transform="matrix(1.0909096,0,0,1.0909096,371.48052,497.25255)"
       d="M 12,6 V 36 H 56 V 6 Z" />
    <g
       style="stroke-width:2;stroke-linecap:round"
       id="g51">
      <path
         inkscape:connector-curvature="0"
         style="fill:url(#b)"
         id="path35"
         transform="matrix(1.0909096,0,0,1.0909096,371.48052,497.25255)"
         d="M 56,6 25.71875,23.482422 47.400391,36 H 56 Z" />
      <path
         inkscape:connector-curvature="0"
         style="fill:url(#c)"
         id="path37"
         transform="matrix(1.0909096,0,0,1.0909096,371.48052,497.25255)"
         d="M 25.75,23.416016 12,31.355469 V 36 h 35.605469 z" />
      <path
         inkscape:connector-curvature="0"
         style="fill:url(#e)"
         id="path39"
         d="m 407.82995,527.56606 -8.25852,-4.76806 v 9.53611 z" />
      <path
         inkscape:connector-curvature="0"
         style="fill:url(#f)"
         id="path41"
         transform="matrix(1.0909096,0,0,1.0909096,371.48052,497.25255)"
         d="M 40.890625,32.15625 V 36 h 6.65625 z" />
      <path
         inkscape:connector-curvature="0"
         style="fill:url(#g)"
         id="path43"
         transform="matrix(1.0909096,0,0,1.0909096,349.66233,497.25255)"
         d="M 53.320312,27.787109 V 36 h 0.916016 l 6.654297,-3.841797 z" />
      <path
         inkscape:connector-curvature="0"
         style="fill:url(#h)"
         id="path45"
         transform="matrix(1.0909096,0,0,1.0909096,371.48052,497.25255)"
         d="M 25.75,32.158203 V 36 h 6.654297 z" />
      <path
         inkscape:connector-curvature="0"
         style="fill:url(#i)"
         id="path47"
         transform="matrix(1.0909096,0,0,1.0909096,371.48052,497.25255)"
         d="M 40.890625,32.15625 34.234375,36 h 6.65625 z" />
      <path
         style="fill:#aa478a"
         inkscape:connector-curvature="0"
         id="path49"
         d="m 399.53737,522.87024 33.03408,-19.07223 -2e-5,9.31712 z" />
    </g>
  </g>
  <path
     style="fill:#ffffff;fill-opacity:0.78431396;stroke-width:1.41421556"
     inkscape:connector-curvature="0"
     id="path59"
     d="m -1e-5,50.00003 h 32.000009 v 7.99994 H -1e-5 Z" />
  <path
     style="fill:#31363b;fill-opacity:0.86224503;stroke-width:1.41421556"
     inkscape:connector-curvature="0"
     id="path61"
     d="m 31.999979,50.00003 h 32.00001 v 7.99994 h -32.00001 z" />
  <circle
     style="fill:#eff0f1;stroke-width:1.9999994"
     id="circle63"
     cy="53.999969"
     cx="58.000134"
     r="1.9999994" />
  <path
     style="fill:#4d4d4d;stroke-width:1.9999994"
     inkscape:connector-curvature="0"
     id="path65"
     d="m 4.0000687,51.99991 v 2 h 1.9999992 v -2 z m 1.9999992,2 v 2 h 1.9999994 v -2 z" />
  <g
     id="g4627"
     transform="matrix(0.48660126,0,0,0.48715665,89.176243,-340.11184)"
     inkscape:export-filename="/home/paulo/Imagens/walpaper.png"
     inkscape:export-xdpi="96"
     inkscape:export-ydpi="96"
     style="fill:#ffffff">
    <g
       transform="matrix(0.72354359,0,0,0.45067067,-5.2878229,662.8491)"
       id="g1582-53-2-3"
       style="fill:#ffffff">
      <path
         style="fill:#ffffff;stroke:#000000;stroke-width:0.03363986"
         inkscape:connector-curvature="0"
         d="m -130.96517,145.71667 c 4.54047,-5.63918 10.0837,-9.33703 15.79408,-9.52189 1.86631,0.32377 3.70479,0.6471 5.54326,0.97067 2.06132,0.87821 4.09475,2.31115 5.84963,4.34494 2.78555,3.79026 5.014003,8.64364 6.601758,13.95924 2.395592,7.67301 3.676938,16.2704 3.844096,24.82162 -0.250793,2.91201 -0.223058,5.87026 -0.696423,8.68988 -1.058489,-2.44985 -1.114203,-5.68542 -1.866313,-8.36635 -1.002803,-3.55915 -1.949891,-7.3032 -3.565495,-10.2152 -2.089183,-4.80717 -5.320413,-8.13519 -8.830203,-9.19835 -1.36491,-0.0464 -2.72985,-0.83197 -4.09476,-0.27741 -3.87191,0.32336 -7.46525,3.28182 -10.58507,6.88717 -0.97494,1.47914 -2.08917,2.68093 -3.03626,4.16007 -0.94709,1.98754 -2.11704,3.6516 -2.95268,5.77784 -2.8134,5.82405 -4.54042,12.94233 -5.5711,20.19932 -0.1394,2.91204 -0.38986,5.77784 -0.50139,8.68984 0.30625,2.03383 -0.22304,4.66851 0.97494,6.1014 0.83564,0.50845 1.75492,0.0923 2.59055,-0.36973 2.22844,-1.75647 4.26192,-4.20628 6.18395,-6.84096 2.28414,-2.2187 4.12257,-5.50048 6.2953,-7.95029 1.1978,-1.10937 2.11704,-2.77338 3.28697,-3.8365 2.2563,-2.77334 4.76329,-4.89959 7.326,-6.79472 1.97773,-1.10937 4.15046,-1.84892 6.23965,-1.06312 2.479138,1.20179 4.623979,4.20624 5.766061,8.04275 1.782777,5.54671 2.479157,11.833 2.841265,17.98061 0.08361,3.18936 -0.362108,6.37873 -0.445715,9.56814 -1.309197,10.49251 -3.370488,20.89262 -6.490311,30.322 -1.19778,3.23567 -2.33984,6.51744 -3.9276,9.24458 -0.47357,0.69335 -0.83568,1.75647 -1.50421,1.94137 0.2508,-2.08003 0.94709,-3.97516 1.28135,-6.00895 0.36212,-2.26491 0.80779,-4.48361 0.89139,-6.84096 0.69638,-3.42049 0.64068,-7.11833 0.97493,-10.67742 -0.16718,-3.69785 0.16719,-7.4419 -0.19492,-11.09346 -0.13939,-2.58851 -0.30625,-5.2694 -0.91924,-7.67297 -0.38984,-1.47914 -0.58496,-3.14315 -1.28134,-4.34493 -0.69638,-1.52536 -1.78278,-2.31116 -2.84127,-2.95829 -0.86354,0.0923 -1.72702,0.2774 -2.59055,0.55472 -2.08915,1.47911 -3.8998,3.83646 -5.62682,6.24003 -1.55992,1.57159 -2.95267,3.65159 -4.67973,4.76097 -2.47911,1.75646 -5.34827,3.09691 -7.99453,1.5253 -3.70479,-1.34048 -6.88031,-5.17694 -9.77727,-9.05961 -1.2535,-2.08004 -2.6463,-3.97517 -3.5655,-6.5174 -2.45129,-6.14761 -3.89975,-13.49701 -3.70479,-20.89269 -0.0555,-2.26487 -0.13953,-4.66847 0.41782,-6.79476 0.83568,-8.8747 3.45408,-17.05615 6.51821,-24.40555 1.67132,-3.23558 3.23122,-6.7023 5.26469,-9.29077 0.83565,-1.4329 1.67132,-2.8658 2.75767,-3.79022 z"
         id="path1007-5-5-7-8" />
      <path
         style="fill:#ffffff;stroke:#000000;stroke-width:0.03363986"
         inkscape:connector-curvature="0"
         d="m -210.10263,137.85879 c 0.25078,-0.46223 0.58497,-0.73955 0.97494,-0.87821 -0.38986,2.77334 -1.28136,5.2694 -1.61562,8.08895 -0.33439,1.57156 -0.44567,3.18941 -0.77997,4.71472 -0.30625,1.5716 -0.11129,3.23557 -0.36213,4.76092 -0.55707,2.77334 -0.75208,5.73163 -0.58496,8.64368 -0.30625,6.60985 -0.22266,13.58947 1.67136,19.59842 0.69638,1.75643 1.94988,2.63468 3.14767,3.18936 1.14206,-0.32377 2.4234,-0.1387 3.42619,-1.38669 3.09202,-2.72713 5.45972,-7.21073 8.66309,-9.70675 2.14488,-2.08004 4.67973,-2.81963 7.13098,-2.63473 2.56275,0.83201 5.06974,2.31116 7.18673,4.89963 2.59056,2.49602 4.84689,5.77784 6.82461,9.47564 0.52924,1.43295 1.08636,2.81959 1.67132,4.20628 1.83848,5.36182 2.78557,11.50943 2.81342,17.7033 -0.1394,3.18936 -0.38985,6.42493 -0.58497,9.6143 -0.47354,3.23561 -1.19777,6.33248 -1.89418,9.47568 -1.61561,6.28628 -3.92761,12.06412 -6.60176,17.24106 -1.30916,2.17245 -2.53485,4.48361 -4.06687,6.24004 -4.81902,7.16453 -11.11437,11.78683 -17.60468,12.11036 -1.89418,-0.41599 -3.8162,-0.64715 -5.71038,-1.06312 -1.00279,-0.6009 -2.03347,-1.06312 -3.00838,-1.71027 -2.39558,-1.94133 -4.56831,-4.80713 -6.07253,-8.45873 -1.61561,-2.77337 -2.64626,-6.24006 -3.70479,-9.61433 -2.11699,-7.85784 -3.45408,-16.45526 -3.31479,-25.0989 -0.27851,-2.21871 0.52927,-4.20629 0.58494,-6.37873 0.11128,-0.0459 0.33439,-0.0459 0.44571,-0.0459 0.77998,4.76092 1.69917,9.52184 3.23123,13.77433 0.75212,2.49601 2.00562,4.43735 2.98056,6.65605 2.00559,3.51293 4.65187,5.96275 7.52096,6.84096 1.05853,0.23103 2.08917,0.2774 3.14767,0.55464 2.28418,-0.2774 4.59618,-0.97067 6.74105,-2.44972 10.00015,-7.21079 16.7133,-24.86783 16.99188,-42.80224 -0.30627,-1.89517 0.13939,-3.97516 -0.36213,-5.73159 -0.61285,-1.75651 -1.97777,-1.34049 -2.9527,-0.7858 -2.11704,1.24799 -3.84406,3.69776 -5.62682,5.91646 -2.33985,2.35736 -4.23403,5.63918 -6.49031,8.22765 -1.28136,1.15562 -2.28419,3.05071 -3.56554,4.20628 -2.33985,2.81955 -4.84684,5.17695 -7.4931,7.02587 -2.59056,1.57156 -5.65467,2.44978 -8.16167,0 -2.45129,-2.08004 -3.9555,-6.10141 -4.95829,-10.21523 -0.97494,-4.2987 -1.58777,-8.87479 -1.78273,-13.45081 0.30625,-4.2987 0.52924,-8.59743 0.83564,-12.89612 1.16995,-8.22766 3.09198,-16.13174 5.37611,-23.66605 1.64347,-5.03824 3.48198,-10.07657 5.93324,-14.19035 z"
         id="path1009-2-4-3-2" />
      <path
         style="fill:#ffffff;stroke:#000000;stroke-width:0.03363986"
         inkscape:connector-curvature="0"
         d="m -166.62017,181.81656 c 1.92202,-4.06758 5.2368,-5.50048 8.21737,-4.80713 1.47631,0.83197 3.06407,1.47911 4.28971,3.14316 2.00564,1.75642 3.03628,5.36182 3.37053,8.87475 -0.22304,4.15999 -0.72427,8.32006 -0.50141,12.48009 0.47356,8.73609 3.25909,16.54772 6.35109,23.48114 1.47632,4.11383 3.76046,7.30323 5.20896,11.50947 -2.84126,-0.92446 -5.62681,-2.31115 -8.32877,-3.92896 -3.34268,-1.84891 -6.46251,-4.76092 -9.16446,-8.45872 -1.47636,-2.1725 -3.14768,-4.06759 -4.26192,-6.79475 -2.08914,-3.69781 -3.64905,-8.089 -4.87469,-12.66501 -1.28139,-5.36186 -2.22844,-11.18591 -1.83848,-16.96371 0.36212,-2.03383 0.75208,-4.16007 1.53207,-5.87033 z"
         id="path1013-6-83-9-1" />
    </g>
    <path
       transform="matrix(0.78987392,0.61326926,-0.38260918,0.92391029,0,0)"
       d="m 183.03923,674.30261 a 9.5470543,5.4605856 0 0 1 -9.53002,5.46058 9.5470543,5.4605856 0 0 1 -9.56403,-5.44109 9.5470543,5.4605856 0 0 1 9.49588,-5.48 9.5470543,5.4605856 0 0 1 9.59792,5.42153 l -9.54681,0.039 z"
       sodipodi:end="6.2760469"
       sodipodi:start="0"
       sodipodi:ry="5.4605856"
       sodipodi:rx="9.5470543"
       sodipodi:cy="674.30261"
       sodipodi:cx="173.49217"
       sodipodi:type="arc"
       id="path1239-5"
       style="opacity:1;fill:#ffffff;fill-opacity:1;stroke:#ffa900;stroke-width:0.52797085;stroke-miterlimit:4;stroke-dasharray:none;stroke-dashoffset:4.00629902;stroke-opacity:0" />
  </g>
</svg>
