<svg xmlns="http://www.w3.org/2000/svg" viewBox="0 0 199.86 182.51"><defs><style>.cls-1{fill:#069;}.cls-2{fill:#2493b0;}.cls-3{fill:#4b5a5a;}.cls-4{fill:#ba4874;}.cls-5{fill:#32383d;}.cls-6{fill:#002a44;}.cls-7{fill:#fff;}.cls-8{fill:#e56353;}.cls-9{fill:#64798a;}.cls-10{fill:#dc8744;}.cls-11{fill:#2991c9;}</style></defs><g id="Layer_1" data-name="Layer 1"><rect class="cls-1" y="17.51" width="199.86" height="131" rx="12"/></g><g id="Layer_4" data-name="Layer 4"><polygon class="cls-2" points="192.73 26.69 7.73 135.63 7.73 26.69 192.73 26.69"/><polygon class="cls-3" points="7.73 135.63 66.48 101.03 117.45 135.63 7.73 135.63"/><polygon class="cls-4" points="192.73 26.69 66.48 101.03 117.45 135.63 192.73 135.63 192.73 26.69"/><rect class="cls-5" x="7.73" y="124.63" width="185" height="11"/><circle class="cls-6" cx="100.28" cy="79.66" r="35"/><path id="path6" class="cls-7" d="M109.67,69.57a11.69,11.69,0,0,1,6.25-3.52c.8,0,1.59-.11,2.36-.15a7.7,7.7,0,0,1,2.65.69,11.11,11.11,0,0,1,3.37,3.07,14.29,14.29,0,0,1,2.65,6,15.34,15.34,0,0,1,.07,2.25,9.74,9.74,0,0,1-1.11-2A9.66,9.66,0,0,0,124,73.62a6.17,6.17,0,0,0-4.1-1.71,5.62,5.62,0,0,0-1.74.22A8.48,8.48,0,0,0,114,74.64c-.36.44-.76.84-1.09,1.27-.32.58-.72,1.09-1,1.68a13.28,13.28,0,0,0-1.49,5.52c.08.76.08,1.48.15,2.24.22.52.11,1.2.65,1.49a1.76,1.76,0,0,0,1.09-.27,15,15,0,0,0,2.32-2.18c.88-.73,1.49-1.68,2.33-2.47.47-.36.76-.84,1.23-1.2A16.77,16.77,0,0,1,121,78.47a4.62,4.62,0,0,1,2.58-.69,4.1,4.1,0,0,1,2.76,1.63,12.78,12.78,0,0,1,1.95,4.36c.18.8.11,1.63.22,2.47a28.14,28.14,0,0,1-1.45,8.13A11.9,11.9,0,0,1,125.79,97c-.19.22-.3.51-.56.58a14.07,14.07,0,0,1,.28-1.6,7,7,0,0,0,.07-1.77,17,17,0,0,0,0-2.76c-.22-.91-.26-1.89-.56-2.79a7.12,7.12,0,0,0-.73-1.89,2.92,2.92,0,0,0-.72-1,2.45,2.45,0,0,0-1.31-.56,4.92,4.92,0,0,0-1,.33,9.54,9.54,0,0,0-2.11,1.95A12.41,12.41,0,0,1,117.29,89a4.74,4.74,0,0,1-3.3,1,10.78,10.78,0,0,1-4.5-1.6,9,9,0,0,1-1.78-1.42,8.94,8.94,0,0,1-2.4-5,4,4,0,0,1-.11-1.75,15.4,15.4,0,0,1,1.71-6.64,17.61,17.61,0,0,1,1.81-2.72A2.64,2.64,0,0,1,109.67,69.57Z" transform="translate(-0.14 -5.49)"/><path id="path3742" class="cls-7" d="M91.16,100.74a11.74,11.74,0,0,1-6.24,3.53c-.8,0-1.6.11-2.36.14a7.37,7.37,0,0,1-2.65-.69,11.06,11.06,0,0,1-3.38-3.08,14.42,14.42,0,0,1-2.65-6,15.38,15.38,0,0,1-.07-2.25,8.92,8.92,0,0,1,1.12,2,9.78,9.78,0,0,0,1.92,2.32A6.17,6.17,0,0,0,81,98.39a5.94,5.94,0,0,0,1.74-.22,8.48,8.48,0,0,0,4.14-2.51c.36-.44.76-.84,1.09-1.27a19.26,19.26,0,0,0,1-1.68,13.27,13.27,0,0,0,1.49-5.51c-.07-.77-.07-1.49-.15-2.26-.21-.5-.11-1.19-.65-1.48a1.77,1.77,0,0,0-1.09.28,14.08,14.08,0,0,0-2.32,2.18c-.87.72-1.49,1.67-2.33,2.46-.47.37-.76.84-1.23,1.2a16.77,16.77,0,0,1-2.79,2.25,4.68,4.68,0,0,1-2.58.69,4.06,4.06,0,0,1-2.76-1.63,12.62,12.62,0,0,1-1.95-4.36c-.18-.8-.11-1.63-.22-2.47a28.2,28.2,0,0,1,1.45-8.13,11.93,11.93,0,0,1,1.28-2.61c.18-.22.27-.51.54-.58a12.51,12.51,0,0,1-.28,1.59,7.09,7.09,0,0,0-.07,1.78,17,17,0,0,0,0,2.76c.22.91.26,1.89.55,2.79a7.1,7.1,0,0,0,.72,1.89,2.94,2.94,0,0,0,.73,1,2.44,2.44,0,0,0,1.31.55,4.92,4.92,0,0,0,1-.33,9.72,9.72,0,0,0,2.1-2,12.32,12.32,0,0,1,1.78-1.52,4.72,4.72,0,0,1,3.31-1,10.69,10.69,0,0,1,4.5,1.6,10,10,0,0,1,1.78,1.41,9.06,9.06,0,0,1,2.43,5,4.11,4.11,0,0,1,.11,1.74,15.36,15.36,0,0,1-1.71,6.64,17.86,17.86,0,0,1-1.81,2.72A3.09,3.09,0,0,1,91.16,100.74Z" transform="translate(-0.14 -5.49)"/><path id="path10" class="cls-7" d="M96.1,71.6A6,6,0,0,1,101,72a4,4,0,0,1,1.27,1.53,2.72,2.72,0,0,1-.15,2.36A5,5,0,0,1,100,78.06a6.13,6.13,0,0,1-4.76.29A3.59,3.59,0,0,1,93,76.14a2.79,2.79,0,0,1,.37-2.26A5,5,0,0,1,96.1,71.6Z" transform="translate(-0.14 -5.49)"/><path id="path12" class="cls-7" d="M96.24,81.22a3.72,3.72,0,0,1,3.23-1.78,4.94,4.94,0,0,1,1.93.51,2.94,2.94,0,0,1,1.78,2,15.79,15.79,0,0,0,.32,3.2,12.22,12.22,0,0,0,3.67,5.48c.8.94,1.89,1.6,2.68,2.54a25,25,0,0,1-3.66-.39A12.39,12.39,0,0,1,102,91.28a9,9,0,0,1-2.07-1.41A11.38,11.38,0,0,1,97.33,87a9.32,9.32,0,0,1-1.49-4.19A5.09,5.09,0,0,1,96.24,81.22Z" transform="translate(-0.14 -5.49)"/><ellipse class="cls-8" cx="131.92" cy="45.1" rx="10.76" ry="54.96" transform="translate(6.62 101) rotate(-45)"/><rect class="cls-9" x="165.81" y="73.58" width="5.82" height="16.64" rx="2.91" transform="translate(107.19 -100.81) rotate(45)"/><path class="cls-10" d="M167,87.75s-2.48,21.44,30.78,27a1.77,1.77,0,0,0,1.2-2s-11.92-9.81-9.72-16.31,1.56-15.12-14.38-16.41Z" transform="translate(-0.14 -5.49)"/><rect class="cls-1" x="64.63" y="147.51" width="70.85" height="23"/><ellipse class="cls-1" cx="100.05" cy="174.09" rx="56.46" ry="8.42"/><circle class="cls-11" cx="182.36" cy="142.01" r="2.5"/></g></svg>