<svg version="1.1" viewBox="0 0 22 22" xmlns="http://www.w3.org/2000/svg" xmlns:xlink="http://www.w3.org/1999/xlink"><defs><style type="text/css">.ColorScheme-Text {
        color:#31363b;
      }
      .ColorScheme-Background {
        color:#eff0f1;
      }
      .ColorScheme-Highlight {
        color:#3daee9;
      }
      .ColorScheme-ViewText {
        color:#31363b;
      }
      .ColorScheme-ViewBackground {
        color:#fcfcfc;
      }
      .ColorScheme-ViewHover {
        color:#93cee9;
      }
      .ColorScheme-ViewFocus{
        color:#3daee9;
      }
      .ColorScheme-ButtonText {
        color:#31363b;
      }
      .ColorScheme-ButtonBackground {
        color:#eff0f1;
      }
      .ColorScheme-ButtonHover {
        color:#93cee9;
      }
      .ColorScheme-ButtonFocus{
        color:#3daee9;
      }</style><clipPath id="b"><use transform="translate(-15,-10.75)" xlink:href="#a"/></clipPath></defs><g id="a" transform="translate(15,10.75)" clip-path="url(#b)"><rect x="-10" y="-6.5" width="12" height="16" rx="1" ry="1" opacity=".2"/><rect x="-10" y="-7" width="12" height="16" rx="1" ry="1" fill="#adadad"/><rect x="-14" y="-8.5" width="20" height="16" rx="1" ry="1" opacity=".2"/><path d="m-14 5v1c0 0.554 0.446 1 1 1h18c0.554 0 1-0.446 1-1v-1z" fill="#595959"/><path d="m-13-9c-0.554 0-1 0.446-1 1v13h20v-13c0-0.554-0.446-1-1-1z" fill="#333"/><rect x="-14" y="5" width="20" height=".5" fill="#fff" opacity=".1"/><path d="m-13-9c-0.554 0-1 0.446-1 1v0.5c0-0.554 0.446-1 1-1h18c0.554 0 1 0.446 1 1v-0.5c0-0.554-0.446-1-1-1z" fill="#fff" opacity=".1"/></g><path class="ColorScheme-Text" d="m6.2561 4.905c-1.6953 0.035487-3.0475 1.2192-3.0475 2.6822v2.6846h1.567v-2.6846c0-0.7431 0.69807-1.3411 1.5646-1.3411 0.86659 0 1.5622 0.59798 1.5622 1.3411v2.538h-1.4709v3.9127h9.1256v-3.9127h-6.0901v-2.538c0-1.4862-1.3937-2.6822-3.1268-2.6822-0.029557 0-0.055152-5.947e-4 -0.084118 0z" color="#31363b" fill="#adadad"/></svg>
