<svg version="1.1" viewBox="0 0 22 22" xmlns="http://www.w3.org/2000/svg" xmlns:xlink="http://www.w3.org/1999/xlink"><defs><style type="text/css">.ColorScheme-Text {
        color:#31363b;
      }
      .ColorScheme-Background {
        color:#eff0f1;
      }
      .ColorScheme-Highlight {
        color:#3daee9;
      }
      .ColorScheme-ViewText {
        color:#31363b;
      }
      .ColorScheme-ViewBackground {
        color:#fcfcfc;
      }
      .ColorScheme-ViewHover {
        color:#93cee9;
      }
      .ColorScheme-ViewFocus{
        color:#3daee9;
      }
      .ColorScheme-ButtonText {
        color:#31363b;
      }
      .ColorScheme-ButtonBackground {
        color:#eff0f1;
      }
      .ColorScheme-ButtonHover {
        color:#93cee9;
      }
      .ColorScheme-ButtonFocus{
        color:#3daee9;
      }</style><clipPath id="b"><use transform="translate(-15,-10.75)" xlink:href="#a"/></clipPath></defs><g id="a" transform="translate(15,10.75)" clip-path="url(#b)"><rect x="-10" y="-6.5" width="12" height="16" rx="1" ry="1" opacity=".2"/><rect x="-10" y="-7" width="12" height="16" rx="1" ry="1" fill="#adadad"/><rect x="-14" y="-8.5" width="20" height="16" rx="1" ry="1" opacity=".2"/><path d="m-14 5v1c0 0.554 0.446 1 1 1h18c0.554 0 1-0.446 1-1v-1z" fill="#595959"/><path d="m-13-9c-0.554 0-1 0.446-1 1v13h20v-13c0-0.554-0.446-1-1-1z" fill="#333"/><rect x="-14" y="5" width="20" height=".5" fill="#fff" opacity=".1"/><path d="m-13-9c-0.554 0-1 0.446-1 1v0.5c0-0.554 0.446-1 1-1h18c0.554 0 1 0.446 1 1v-0.5c0-0.554-0.446-1-1-1z" fill="#fff" opacity=".1"/></g><path class="ColorScheme-Text" d="m11 4.9014c-1.686 0-3.0457 1.1647-3.0457 2.6106v2.6106h-1.5193v3.9135h9.13v-3.9135h-1.5241v-2.6106c0-1.4459-1.3549-2.6106-3.0409-2.6106zm0 1.3053c0.84302 0 1.5217 0.58237 1.5217 1.3053v2.6106h-3.0433v-2.6106c0-0.72294 0.67864-1.3053 1.5217-1.3053z" fill="#adadad"/></svg>
