<svg xmlns="http://www.w3.org/2000/svg" xmlns:xlink="http://www.w3.org/1999/xlink" viewBox="0 0 22 22"><defs><clipPath id="b"><use xlink:href="#a" transform="translate(-15 -10.75)"/></clipPath></defs><g id="a" clip-path="url(#b)" transform="translate(15 10.75)"><rect width="12" height="16" x="-10" y="-6.5" opacity=".2" rx="1" ry="1"/><rect width="12" height="16" x="-10" y="-7" fill="#adadad" rx="1" ry="1"/><rect width="20" height="16" x="-14" y="-8.5" opacity=".2" rx="1" ry="1"/><path fill="#595959" d="M-14 5v1c0 .554.446 1 1 1H5c.554 0 1-.446 1-1V5z"/><path fill="#333" d="M-13-9c-.554 0-1 .446-1 1V5H6V-8c0-.554-.446-1-1-1z"/><path fill="#fff" d="M-14 5H6v.5h-20zM-13-9c-.554 0-1 .446-1 1v.5c0-.554.446-1 1-1H5c.554 0 1 .446 1 1V-8c0-.554-.446-1-1-1z" opacity=".1"/></g><path fill="#adadad" d="M11 4.901c-1.686 0-3.046 1.165-3.046 2.611v2.61H6.435v3.914h9.13v-3.913h-1.524V7.512c0-1.446-1.355-2.61-3.041-2.61m0 1.306c.843 0 1.522.582 1.522 1.305v2.61H9.478v-2.61c0-.723.679-1.305 1.522-1.305" style="color:#31363b"/></svg>