<svg xmlns="http://www.w3.org/2000/svg" xmlns:xlink="http://www.w3.org/1999/xlink" viewBox="0 0 22 22"><defs><clipPath id="b"><use xlink:href="#a" transform="translate(-15 -10.75)"/></clipPath></defs><g id="a" clip-path="url(#b)" transform="translate(15 10.75)"><rect width="12" height="16" x="-10" y="-6.5" opacity=".2" rx="1" ry="1"/><rect width="12" height="16" x="-10" y="-7" fill="#adadad" rx="1" ry="1"/><rect width="20" height="16" x="-14" y="-8.5" opacity=".2" rx="1" ry="1"/><path fill="#595959" d="M-14 5v1c0 .554.446 1 1 1H5c.554 0 1-.446 1-1V5z"/><path fill="#333" d="M-13-9c-.554 0-1 .446-1 1V5H6V-8c0-.554-.446-1-1-1z"/><path fill="#fff" d="M-14 5H6v.5h-20zM-13-9c-.554 0-1 .446-1 1v.5c0-.554.446-1 1-1H5c.554 0 1 .446 1 1V-8c0-.554-.446-1-1-1z" opacity=".1"/></g><path fill="#adadad" d="M6.256 4.905C4.561 4.94 3.21 6.125 3.21 7.587v2.685h1.567V7.587c0-.743.698-1.34 1.564-1.34s1.562.597 1.562 1.34v2.538h-1.47v3.913h9.125v-3.913h-6.09V7.587c0-1.486-1.394-2.682-3.127-2.682z" style="color:#31363b"/></svg>