<?xml version="1.0" encoding="UTF-8" standalone="no"?>
<svg
   xmlns:dc="http://purl.org/dc/elements/1.1/"
   xmlns:cc="http://creativecommons.org/ns#"
   xmlns:rdf="http://www.w3.org/1999/02/22-rdf-syntax-ns#"
   xmlns:svg="http://www.w3.org/2000/svg"
   xmlns="http://www.w3.org/2000/svg"
   xmlns:sodipodi="http://sodipodi.sourceforge.net/DTD/sodipodi-0.dtd"
   xmlns:inkscape="http://www.inkscape.org/namespaces/inkscape"
   height="1080"
   width="1080"
   fill="#000000"
   viewBox="0 0 230.4 230.4"
   x="0px"
   y="0px"
   version="1.1"
   id="svg8"
   sodipodi:docname="1617513873389.svg"
   inkscape:version="1.0.2 (e86c870879, 2021-01-15)">
  <metadata
     id="metadata14">
    <rdf:RDF>
      <cc:Work
         rdf:about="">
        <dc:format>image/svg+xml</dc:format>
        <dc:type
           rdf:resource="http://purl.org/dc/dcmitype/StillImage" />
        <dc:title>Furniture, house, living, roomicon_38</dc:title>
        <cc:license
           rdf:resource="http://creativecommons.org/licenses/by/4.0/" />
        <dc:source>https://thenounproject.com/term/window/3076606/</dc:source>
        <dc:creator>
          <cc:Agent>
            <dc:title>Dam</dc:title>
          </cc:Agent>
        </dc:creator>
        <dc:contributor>
          <cc:Agent>
            <dc:title>Alberto Salvia Novella</dc:title>
          </cc:Agent>
        </dc:contributor>
      </cc:Work>
      <cc:License
         rdf:about="http://creativecommons.org/licenses/by/4.0/">
        <cc:permits
           rdf:resource="http://creativecommons.org/ns#Reproduction" />
        <cc:permits
           rdf:resource="http://creativecommons.org/ns#Distribution" />
        <cc:requires
           rdf:resource="http://creativecommons.org/ns#Notice" />
        <cc:requires
           rdf:resource="http://creativecommons.org/ns#Attribution" />
        <cc:permits
           rdf:resource="http://creativecommons.org/ns#DerivativeWorks" />
      </cc:License>
    </rdf:RDF>
  </metadata>
  <defs
     id="defs12" />
  <sodipodi:namedview
     pagecolor="#ffffff"
     bordercolor="#666666"
     borderopacity="1"
     objecttolerance="10"
     gridtolerance="10"
     guidetolerance="10"
     inkscape:pageopacity="0"
     inkscape:pageshadow="2"
     inkscape:window-width="1838"
     inkscape:window-height="1027"
     id="namedview10"
     showgrid="false"
     inkscape:showpageshadow="false"
     inkscape:zoom="0.34666667"
     inkscape:cx="169.90549"
     inkscape:cy="697.18894"
     inkscape:window-x="82"
     inkscape:window-y="0"
     inkscape:window-maximized="1"
     inkscape:current-layer="svg8" />
  <title
     id="title2">Furniture, house, living, roomicon_38</title>
  <g
     id="g951"
     transform="matrix(3.4728329,0,0,3.4728329,4.0693472,4.0693469)">
    <path
       style="fill:#babdb6;stroke:#000000;stroke-width:0.213333px;stroke-linecap:butt;stroke-linejoin:miter;stroke-opacity:1"
       d="m 13.110611,56.146254 -0.592678,-36.963247 3.190712,-9.155833 7.772178,-6.0396076 7.611162,-1.9755546 5.636616,0.5299615 7.040994,3.2521145 5.558618,6.9070182 2.124893,8.73497 -0.376746,34.257269 3.203413,0.253052 -0.64806,4.788113 -3.777465,1.497924 -36.935558,-0.316842 -3.3194479,-2.24655 0.1433188,-3.599266 z"
       id="path930" />
    <path
       style="fill:#729fcf;stroke:#000000;stroke-width:0.213333px;stroke-linecap:butt;stroke-linejoin:miter;stroke-opacity:1"
       d="m 31.847276,5.9858386 -7.943596,1.8386266 -5.148854,6.1970048 -1.818196,6.843813 -0.04678,5.758874 0.353513,1.355418 14.676136,-0.02003 14.918927,0.02003 0.02994,-10.65257 -3.385142,-6.490032 -7.045621,-3.9073102 z"
       id="path855" />
    <rect
       style="fill:#729fcf;stroke-width:10.4819;stroke-linecap:round;stroke-linejoin:round;paint-order:fill markers stroke"
       id="rect839"
       width="29.595062"
       height="27.550592"
       x="17.243359"
       y="27.979576" />
    <path
       style="fill:#edd400;stroke:#000000;stroke-width:0.213333px;stroke-linecap:butt;stroke-linejoin:miter;stroke-opacity:1"
       d="m 21.861809,41.062169 6.038532,0.01103 -0.01843,3.552265 -2.041103,2.330758 -1.543838,-0.02454 -1.91216,-1.266468 -0.567503,-2.599302 z"
       id="path857" />
    <path
       style="fill:#edd400;stroke:#000000;stroke-width:0.213333px;stroke-linecap:butt;stroke-linejoin:miter;stroke-opacity:1"
       d="m 35.354148,40.52869 6.038532,0.01103 -0.01843,3.552265 -2.041103,2.330758 -1.543838,-0.02454 -1.91216,-1.266468 -0.567503,-2.599302 z"
       id="path857-3" />
    <path
       style="fill:#73d216;stroke:#000000;stroke-width:0.213333px;stroke-linecap:butt;stroke-linejoin:miter;stroke-opacity:1"
       d="m 20.063044,46.761175 3.212567,0.884981 1.693097,2.427482 -0.126773,1.485401 -1.982691,-0.294408 -1.546959,-1.032685 -0.931565,-1.769937 z"
       id="path879" />
    <path
       style="fill:#73d216;stroke:#000000;stroke-width:0.213333px;stroke-linecap:butt;stroke-linejoin:miter;stroke-opacity:1"
       d="m 33.5805,46.033971 3.212567,0.884981 1.693097,2.427482 -0.126773,1.485401 -1.982691,-0.294408 -1.546959,-1.032685 -0.931565,-1.769937 z"
       id="path879-6" />
    <path
       style="fill:#73d216;stroke:#000000;stroke-width:0.213333px;stroke-linecap:butt;stroke-linejoin:miter;stroke-opacity:1"
       d="m 25.301202,53.76754 0.663382,-3.265533 2.30611,-1.855021 1.490592,0.02497 -0.158233,1.998175 -0.92456,1.613911 -1.702141,1.050336 z"
       id="path879-7" />
    <path
       style="fill:#73d216;stroke:#000000;stroke-width:0.213333px;stroke-linecap:butt;stroke-linejoin:miter;stroke-opacity:1"
       d="m 39.00579,53.242796 0.663382,-3.265533 2.30611,-1.855021 1.490592,0.02497 -0.158233,1.998175 -0.92456,1.613911 -1.702141,1.050336 z"
       id="path879-7-5" />
    <path
       d="M 52,55 V 21 A 20,20 0 0 0 12,21 V 55 H 9 v 4 a 3.9989,3.9989 0 0 0 4,4 h 38 a 3.9989,3.9989 0 0 0 4,-4 V 55 Z M 14,21 a 18,18 0 0 1 36,0 V 55 H 48 V 21 a 16,16 0 0 0 -32,0 v 34 h -2 z m 24,29.5715 a 4.7125,4.7125 0 0 1 -2.56,-1.175 4.8129,4.8129 0 0 1 -1.1924,-2.65 A 4.785,4.785 0 0 1 36.8965,47.94 4.445,4.445 0 0 1 38,50.1351 Z M 38.5,44 A 0.5,0.5 0 0 0 39,43.5 V 41 h 2 v 2.5 a 2.5,2.5 0 0 1 -5,0 V 41 h 2 v 2.5 a 0.5,0.5 0 0 0 0.5,0.5 z m 0.5,9.6235 a 5.9506,5.9506 0 0 0 3.6035,-1.52 6.1682,6.1682 0 0 0 1.5391,-3.9043 l 0.0058,-0.5117 -0.5117,0.0059 a 6.1665,6.1665 0 0 0 -3.9043,1.539 4.4907,4.4907 0 0 0 -0.7,0.9391 c -0.0086,-0.0471 -0.0218,-0.1 -0.0319,-0.15 V 46.95 a 3.495,3.495 0 0 0 3,-3.45 V 40 H 35 v 3.5 a 3.495,3.495 0 0 0 3,3.45 v 0.7574 a 4.2753,4.2753 0 0 0 -0.3965,-0.4745 6.1678,6.1678 0 0 0 -3.9043,-1.539 l -0.5117,-0.0059 0.0059,0.5117 A 6.1678,6.1678 0 0 0 34.7324,50.104 5.7632,5.7632 0 0 0 38,51.5842 V 55 H 25.36 v -0.8767 a 5.95,5.95 0 0 0 3.6009,-1.52 6.1746,6.1746 0 0 0 1.5391,-3.9041 l 0.0059,-0.5117 -0.5118,0.0059 a 6.1665,6.1665 0 0 0 -3.9043,1.539 4.4938,4.4938 0 0 0 -0.7007,0.9393 C 25.3812,50.6288 25.3691,50.5801 25.36,50.5353 V 47.4492 A 3.495,3.495 0 0 0 28.3574,44 v -3.5 h -7 V 44 a 3.495,3.495 0 0 0 3.0026,3.45 v 0.76 a 4.2712,4.2712 0 0 0 -0.3991,-0.4778 6.17,6.17 0 0 0 -3.9052,-1.539 l -0.5118,-0.0059 0.0059,0.5117 a 6.1722,6.1722 0 0 0 1.54,3.9043 5.7635,5.7635 0 0 0 3.27,1.481 V 55 H 18 V 29 h 28 v 26 h -7 z m 0.2471,-1.0346 A 4.0965,4.0965 0 0 1 43.09,48.7471 4.0984,4.0984 0 0 1 39.2473,52.5889 Z M 24.36,51.0721 A 4.7132,4.7132 0 0 1 21.7969,49.8965 4.8074,4.8074 0 0 1 20.6045,47.2471 4.8071,4.8071 0 0 1 23.2539,48.44 4.4587,4.4587 0 0 1 24.36,50.6532 Z M 24.8574,44.5 a 0.5,0.5 0 0 0 0.5,-0.5 v -2.5 h 2 V 44 a 2.5,2.5 0 0 1 -5,0 v -2.5 h 2 V 44 a 0.5,0.5 0 0 0 0.5,0.5 z m 3.3965,7.3965 a 4.8078,4.8078 0 0 1 -2.6494,1.1924 4.8042,4.8042 0 0 1 1.1924,-2.6489 4.8094,4.8094 0 0 1 2.65,-1.1924 4.7921,4.7921 0 0 1 -1.193,2.6489 z M 46,21 v 6 H 33 V 7.0507 A 14.0073,14.0073 0 0 1 46,21 Z M 31,27 H 18 V 21 A 14.0073,14.0073 0 0 1 31,7.0507 Z m 22,32 a 2.0059,2.0059 0 0 1 -2,2 H 13 a 2.0059,2.0059 0 0 1 -2,-2 v -2 h 42 z"
       id="path4" />
  </g>
</svg>
