<svg xmlns="http://www.w3.org/2000/svg" width="24" height="24" fill="none"><path fill="url(#a)" fill-rule="evenodd" d="M9.596 1.114q.18.001.344-.046a32 32 0 0 1 4.307.011q1.951.153 3.78.848 3.038 1.25 4.158 4.339.64 1.86.756 3.824a28 28 0 0 1-.114 4.923 11.9 11.9 0 0 1-.894 3.32q-1.276 2.764-4.135 3.813a15.6 15.6 0 0 1-4.765.825 21.4 21.4 0 0 1-5.453-.413q-4.967-1.106-6.128-6.056a19 19 0 0 1-.447-4.511 18.5 18.5 0 0 1 .515-4.786q1.217-4.629 5.877-5.736a14 14 0 0 1 2.199-.355" clip-rule="evenodd"/><defs><radialGradient id="a" cx="0" cy="0" r="1" gradientTransform="matrix(0 22 -22 0 12 1)" gradientUnits="userSpaceOnUse"><stop offset="0" stop-color="#555" style="stop-color:#818181;stop-opacity:1"/><stop offset="1" stop-color="#222" style="stop-color:#35393c;stop-opacity:1"/></radialGradient></defs><g fill-rule="evenodd" color="#000" style="stroke-width:.769" transform="translate(-.77 -9.27)scale(.53255)"><rect width="30" height="2" x="9" y="34" fill="#fff" opacity=".194" rx="1" ry=".956" style="isolation:auto;mix-blend-mode:normal"/><path fill="#3daee9" d="M9.961 33.988c-.557 0-1.005.449-1.005 1.006s.448 1.005 1.005 1.005h21.056v-2.011z" style="isolation:auto;mix-blend-mode:normal"/><circle cx="31.972" cy="34.939" r="2.912" fill="#fafafa" style="isolation:auto;mix-blend-mode:normal"/><rect width="30" height="2" x="9" y="44" fill="#fff" opacity=".194" rx="1" ry=".823" style="isolation:auto;mix-blend-mode:normal"/><path fill="#3daee9" d="M9.961 43.988c-.557 0-1.005.449-1.005 1.006s.448 1.005 1.005 1.005h11.056v-2.011z" style="isolation:auto;mix-blend-mode:normal"/><circle cx="19.972" cy="44.939" r="2.912" fill="#fafafa" style="isolation:auto;mix-blend-mode:normal"/></g></svg>