<?xml version="1.0" encoding="UTF-8" standalone="no"?>
<svg
   width="24"
   height="24"
   fill="none"
   version="1.1"
   id="svg3"
   sodipodi:docname="biglinux-settings.svg"
   inkscape:version="1.3 (0e150ed6c4, 2023-07-21)"
   xmlns:inkscape="http://www.inkscape.org/namespaces/inkscape"
   xmlns:sodipodi="http://sodipodi.sourceforge.net/DTD/sodipodi-0.dtd"
   xmlns="http://www.w3.org/2000/svg"
   xmlns:svg="http://www.w3.org/2000/svg">
  <sodipodi:namedview
     id="namedview3"
     pagecolor="#ffffff"
     bordercolor="#000000"
     borderopacity="0.25"
     inkscape:showpageshadow="2"
     inkscape:pageopacity="0.0"
     inkscape:pagecheckerboard="0"
     inkscape:deskcolor="#d1d1d1"
     inkscape:zoom="48.083333"
     inkscape:cx="11.989601"
     inkscape:cy="12"
     inkscape:window-width="3440"
     inkscape:window-height="1360"
     inkscape:window-x="2560"
     inkscape:window-y="0"
     inkscape:window-maximized="1"
     inkscape:current-layer="svg3" />
  <path
     fill="url(#a)"
     fill-rule="evenodd"
     d="M9.596 1.114c.12 0 .234-.014.344-.046a31.627 31.627 0 0 1 4.307.011c1.301.102 2.561.384 3.78.848 2.025.833 3.412 2.28 4.158 4.339.427 1.24.679 2.514.756 3.824a27.94 27.94 0 0 1-.114 4.923 11.88 11.88 0 0 1-.894 3.32c-.85 1.843-2.229 3.114-4.135 3.813a15.624 15.624 0 0 1-4.765.825 21.423 21.423 0 0 1-5.453-.413c-3.312-.737-5.354-2.756-6.128-6.056a19.047 19.047 0 0 1-.447-4.511 18.491 18.491 0 0 1 .515-4.786c.812-3.086 2.77-4.998 5.877-5.736a13.953 13.953 0 0 1 2.199-.355Z"
     clip-rule="evenodd"
     id="path1" />
  <defs
     id="defs2">
    <radialGradient
       id="a"
       cx="0"
       cy="0"
       r="1"
       gradientTransform="matrix(0 22 -22 0 12 1)"
       gradientUnits="userSpaceOnUse">
      <stop
         offset="0"
         stop-color="#555"
         style="stop-color:#818181;stop-opacity:1"
         id="stop1" />
      <stop
         offset="1"
         stop-color="#222"
         style="stop-color:#35393c;stop-opacity:1"
         id="stop2" />
    </radialGradient>
  </defs>
  <g
     fill-rule="evenodd"
     color="#000"
     style="stroke-width:.769"
     transform="translate(-.77 -9.27) scale(.53255)"
     id="g3">
    <rect
       width="30"
       height="2"
       x="9"
       y="34"
       fill="#fff"
       opacity=".194"
       rx="1"
       ry=".956"
       style="isolation:auto;mix-blend-mode:normal"
       id="rect2" />
    <path
       fill="#3daee9"
       d="M9.961 33.988c-.557 0-1.005.449-1.005 1.006 0 .557.448 1.005 1.005 1.005h21.056v-2.011z"
       style="isolation:auto;mix-blend-mode:normal"
       id="path2" />
    <circle
       cx="31.972"
       cy="34.939"
       r="2.912"
       fill="#fafafa"
       style="isolation:auto;mix-blend-mode:normal"
       id="circle2" />
    <rect
       width="30"
       height="2"
       x="9"
       y="44"
       fill="#fff"
       opacity=".194"
       rx="1"
       ry=".823"
       style="isolation:auto;mix-blend-mode:normal"
       id="rect3" />
    <path
       fill="#3daee9"
       d="M9.961 43.988c-.557 0-1.005.449-1.005 1.006 0 .557.448 1.005 1.005 1.005h11.056v-2.011z"
       style="isolation:auto;mix-blend-mode:normal"
       id="path3" />
    <circle
       cx="19.972"
       cy="44.939"
       r="2.912"
       fill="#fafafa"
       style="isolation:auto;mix-blend-mode:normal"
       id="circle3" />
  </g>
</svg>
