<?xml version="1.0" encoding="UTF-8" standalone="no"?>
<!-- Created with Inkscape (http://www.inkscape.org/) -->

<svg
   width="200"
   height="200"
   viewBox="0 0 52.916665 52.916666"
   version="1.1"
   id="svg7862"
   xml:space="preserve"
   inkscape:version="1.2 (dc2aedaf03, 2022-05-15)"
   sodipodi:docname="icon-run.svg"
   xmlns:inkscape="http://www.inkscape.org/namespaces/inkscape"
   xmlns:sodipodi="http://sodipodi.sourceforge.net/DTD/sodipodi-0.dtd"
   xmlns="http://www.w3.org/2000/svg"
   xmlns:svg="http://www.w3.org/2000/svg"><sodipodi:namedview
     id="namedview7864"
     pagecolor="#ffffff"
     bordercolor="#666666"
     borderopacity="1.0"
     inkscape:showpageshadow="2"
     inkscape:pageopacity="0.0"
     inkscape:pagecheckerboard="0"
     inkscape:deskcolor="#d1d1d1"
     inkscape:document-units="mm"
     showgrid="false"
     inkscape:zoom="2.7929605"
     inkscape:cx="330.29468"
     inkscape:cy="92.554119"
     inkscape:window-width="2560"
     inkscape:window-height="1008"
     inkscape:window-x="1680"
     inkscape:window-y="0"
     inkscape:window-maximized="1"
     inkscape:current-layer="layer1" /><defs
     id="defs7859" /><g
     inkscape:label="Camada 1"
     inkscape:groupmode="layer"
     id="layer1"><g
       id="g12194"
       transform="matrix(1.2117742,0,0,1.2117742,-6.5699559,-3.9670178)"><circle
         style="opacity:1;fill:#ececec;fill-opacity:1;stroke:none;stroke-width:0;stroke-linecap:round;stroke-linejoin:round"
         id="circle12189"
         cx="27.256142"
         cy="25.108103"
         r="21.834375" /><circle
         style="opacity:1;fill:#cccccc;fill-opacity:1;stroke:none;stroke-width:0;stroke-linecap:round;stroke-linejoin:round"
         id="path12187"
         cx="27.256142"
         cy="25.108103"
         r="19.645855" /><path
         id="path8372"
         style="opacity:1;fill:#5a5a5a;fill-opacity:1;stroke:none;stroke-width:0.192448px;stroke-linecap:butt;stroke-linejoin:miter;stroke-opacity:1"
         d="m 39.64269,12.683699 c 0,0 -9.83413,-0.310708 -16.344695,8.982993 -4.418222,0.05134 -7.55665,2.257396 -10.380753,4.992768 2.327668,-0.610718 4.62349,-1.29695 7.712541,-0.111098 -0.392014,0.933291 -0.75453,1.928888 -1.080944,2.99194 0.627049,0.400304 1.228657,0.871404 1.786338,1.398825 0.573797,0.591118 1.084262,1.234448 1.513379,1.907272 1.063053,-0.326417 2.05865,-0.688931 2.991941,-1.080945 1.185851,3.089052 0.499621,5.384873 -0.111098,7.712542 2.735352,-2.824126 4.941442,-5.962522 4.992762,-10.380759 9.293709,-6.510551 8.926641,-16.407422 8.926641,-16.407422 -0.002,-0.0029 -0.0059,-0.0062 -0.0059,-0.0062 z m -5.854169,5.92009 a 2.6800175,2.6800175 0 0 1 0,3.790091 2.6800175,2.6800175 0 0 1 -3.790357,2.66e-4 2.6800175,2.6800175 0 0 1 4e-6,-3.79062 2.6800175,2.6800175 0 0 1 3.790353,2.63e-4 z M 19.005839,30.912548 c -2.991243,1.731199 -3.549118,3.909958 -3.781586,6.148664 l 0.788319,-0.787785 -0.788315,0.788851 c 2.238695,-0.232478 4.417464,-0.790343 6.148663,-3.781586 l -2.68e-4,-2.68e-4 c -0.996784,0.272964 -1.986861,0.835072 -2.994066,0.628049 -0.207953,-1.007757 0.354413,-1.998339 0.627521,-2.995657 z" /></g></g></svg>
