<?xml version="1.0" encoding="UTF-8" standalone="no"?>
<!-- Created with Inkscape (http://www.inkscape.org/) -->

<svg
   width="200"
   height="200"
   viewBox="0 0 52.916667 52.916666"
   version="1.1"
   id="svg3886"
   xml:space="preserve"
   inkscape:version="1.2 (dc2aedaf03, 2022-05-15)"
   sodipodi:docname="icon-update.svg"
   xmlns:inkscape="http://www.inkscape.org/namespaces/inkscape"
   xmlns:sodipodi="http://sodipodi.sourceforge.net/DTD/sodipodi-0.dtd"
   xmlns="http://www.w3.org/2000/svg"
   xmlns:svg="http://www.w3.org/2000/svg"><sodipodi:namedview
     id="namedview3888"
     pagecolor="#ffffff"
     bordercolor="#666666"
     borderopacity="1.0"
     inkscape:showpageshadow="2"
     inkscape:pageopacity="0.0"
     inkscape:pagecheckerboard="0"
     inkscape:deskcolor="#d1d1d1"
     inkscape:document-units="mm"
     showgrid="false"
     inkscape:zoom="4.2568633"
     inkscape:cx="185.34774"
     inkscape:cy="178.88758"
     inkscape:window-width="2560"
     inkscape:window-height="1008"
     inkscape:window-x="1680"
     inkscape:window-y="0"
     inkscape:window-maximized="1"
     inkscape:current-layer="layer1" /><defs
     id="defs3883"><style
       id="style4619">.cls-1{fill:#069;}.cls-2{fill:#2991c9;}.cls-3{fill:#fff;}.cls-4{fill:#002a44;}.cls-5{fill:#3380cc;}.cls-6{fill:#cc5e55;}</style></defs><g
     inkscape:label="Camada 1"
     inkscape:groupmode="layer"
     id="layer1"><g
       id="g4796"
       transform="matrix(0,-1.5717483,1.5717483,0,-10.081757,5.462139)"
       style="fill:#006699;fill-opacity:1"><polygon
         class="cls-5"
         points="61.53,92.52 71.04,76.05 52.02,76.05 "
         id="polygon4638"
         transform="matrix(0.26458333,0,0,0.26458333,-16.527737,3.7380532)"
         style="fill:#006699;fill-opacity:1" /><path
         class="cls-5"
         d="M 0.43734564,28.608887 2.9535336,24.248553 a 0.79374999,0.79374999 0 0 0 -0.695855,-1.182687 h -5.027083 a 0.79374999,0.79374999 0 0 0 -0.685271,1.193271 l 2.52147904,4.34975 c 0.510646,0.883708 1.881188,0.08467 1.370542,-0.79375 l -2.51618704,-4.357688 -0.690563,1.195917 h 5.027083 l -0.68527,-1.195917 -2.50560496,4.357688 c -0.51329104,0.889 0.859896,1.688041 1.370542,0.79375 z"
         id="path4640"
         style="fill:#006699;fill-opacity:1;stroke-width:0.264583" /></g><path
       id="circle4904"
       style="fill:#006699;fill-opacity:1;stroke:none;stroke-width:0;stroke-linecap:round;stroke-linejoin:round"
       d="M 26.204602 4.0312785 A 22.367523 22.367523 0 0 0 4.0907064 26.389604 A 22.367523 22.367523 0 0 0 10.852568 42.391211 A 1.5014724 1.5014724 0 0 0 10.882023 42.421183 A 1.5014724 1.5014724 0 0 0 10.901143 42.440304 L 10.901143 42.441337 A 1.5014724 1.5014724 0 0 0 11.96051 42.879036 A 1.5014724 1.5014724 0 0 0 13.462227 41.378353 A 1.5014724 1.5014724 0 0 0 13.019877 40.314335 L 13.020394 40.313302 A 19.369052 19.369052 0 0 1 7.088973 26.389604 A 19.369052 19.369052 0 0 1 26.204602 7.0305786 L 26.204602 4.0312785 z M 41.008866 9.93066 A 1.5014724 1.5014724 0 0 0 39.507149 11.432377 A 1.5014724 1.5014724 0 0 0 39.991874 12.536702 A 19.369052 19.369052 0 0 1 45.827177 26.389604 A 19.369052 19.369052 0 0 1 42.287858 37.520707 A 5.6448011 5.6448011 0 0 1 44.708899 39.296826 A 22.367523 22.367523 0 0 0 48.82596 26.389604 A 22.367523 22.367523 0 0 0 42.186056 10.500651 A 1.5014724 1.5014724 0 0 0 42.183988 10.498067 A 1.5014724 1.5014724 0 0 0 41.008866 9.93066 z M 34.743616 43.882593 A 19.369052 19.369052 0 0 1 26.754439 45.754313 L 26.754439 48.753097 A 22.367523 22.367523 0 0 0 36.083069 46.568217 A 5.6448011 5.6448011 0 0 1 34.743616 43.882593 z " /><g
       id="g5780"
       transform="matrix(0,1.5717483,-1.5717483,0,63.096498,47.454528)"
       style="fill:#006699;fill-opacity:1"><polygon
         class="cls-5"
         points="52.02,76.05 61.53,92.52 71.04,76.05 "
         id="polygon5776"
         transform="matrix(0.26458333,0,0,0.26458333,-16.527737,3.7380532)"
         style="fill:#006699;fill-opacity:1" /><path
         class="cls-5"
         d="M 0.43734564,28.608887 2.9535336,24.248553 a 0.79374999,0.79374999 0 0 0 -0.695855,-1.182687 h -5.027083 a 0.79374999,0.79374999 0 0 0 -0.685271,1.193271 l 2.52147904,4.34975 c 0.510646,0.883708 1.881188,0.08467 1.370542,-0.79375 l -2.51618704,-4.357688 -0.690563,1.195917 h 5.027083 l -0.68527,-1.195917 -2.50560496,4.357688 c -0.51329104,0.889 0.859896,1.688041 1.370542,0.79375 z"
         id="path5778"
         style="fill:#006699;fill-opacity:1;stroke-width:0.264583" /></g><path
       id="path6169"
       style="fill:#35e298;fill-opacity:1;stroke:none;stroke-width:0;stroke-linecap:round;stroke-linejoin:round"
       d="m 36.164748,17.530543 c -0.466686,0.0022 -0.914698,0.183569 -1.251705,0.506413 -3.455993,3.886232 -6.89934,7.809308 -10.344013,11.714222 l -3.923276,-3.428333 -0.0019,0.002 c -0.342471,-0.360666 -0.81743,-0.565691 -1.314765,-0.567565 -1.005503,7.47e-4 -1.820437,0.815681 -1.821179,1.821182 0.0022,0.39098 0.130251,0.770858 0.364993,1.083535 l -0.01147,0.0096 5.18836,6.478281 h 0.0096 c 0.455128,0.532804 1.120455,0.839981 1.821181,0.840836 0.716682,-0.0014 1.395207,-0.323131 1.849846,-0.877147 h 0.0079 l 10.902237,-14.691746 -0.0036,-0.0038 c 0.226091,-0.309002 0.349088,-0.681452 0.351565,-1.064388 3.1e-4,-1.00699 -0.816097,-1.823401 -1.823091,-1.823089 z"
       sodipodi:nodetypes="sccccccccccccccccss" /><circle
       class="cls-2"
       cx="40.279129"
       cy="42.796108"
       r="4.0656362"
       id="circle6740"
       style="fill:#35e298;stroke-width:0.735195;fill-opacity:1" /><rect
       class="cls-1"
       width="52.916664"
       height="40.745834"
       rx="3.175"
       id="rect2809"
       x="133.35724"
       y="-18.437866"
       style="fill:#006699;stroke-width:0.264583" /><circle
       class="cls-2"
       cx="142.23665"
       cy="-14.260094"
       r="1.4631459"
       id="circle2811"
       style="fill:#2991c9;stroke-width:0.264583" /><circle
       class="cls-2"
       cx="146.88538"
       cy="-14.260094"
       r="1.4631459"
       id="circle2813-2"
       style="fill:#2991c9;stroke-width:0.264583" /><circle
       class="cls-2"
       cx="137.58792"
       cy="-14.260094"
       r="1.4631459"
       id="circle2815"
       style="fill:#2991c9;stroke-width:0.264583" /></g></svg>
