<svg id="Layer_1" data-name="Layer 1" xmlns="http://www.w3.org/2000/svg" viewBox="0 0 301.04 204.54"><defs><style>.cls-1,.cls-4{fill:#4374ba;}.cls-2{fill:#fff;}.cls-3{fill:none;}.cls-3,.cls-7{stroke:#4374ba;stroke-miterlimit:10;stroke-width:2px;}.cls-4{font-size:24px;font-family:Lato-Bold, Lato;font-weight:700;letter-spacing:-0.02em;}.cls-5{letter-spacing:-0.01em;}.cls-6{letter-spacing:0em;}.cls-7{fill:#4474ba;}</style></defs><rect class="cls-1" x="86.23" y="176.96" width="128.58" height="23" rx="8"/><rect class="cls-2" x="195.52" y="183.46" width="10" height="10" rx="2"/><rect class="cls-2" x="175.52" y="183.46" width="10" height="10" rx="2"/><rect class="cls-2" x="155.52" y="183.46" width="10" height="10" rx="2"/><rect class="cls-2" x="135.52" y="183.46" width="10" height="10" rx="2"/><rect class="cls-2" x="115.52" y="183.46" width="10" height="10" rx="2"/><rect class="cls-2" x="95.52" y="183.46" width="10" height="10" rx="2"/><rect class="cls-3" x="1" y="1" width="299.04" height="202.54" rx="5"/><rect class="cls-3" x="1.52" y="1" width="298" height="10.85" rx="5.38"/><polygon class="cls-3" points="41.43 6.34 7.91 6.34 7.91 6.34 41.43 6.34 41.43 6.34"/><polygon class="cls-3" points="292.92 6.34 258.4 6.34 258.4 6.34 292.92 6.34 292.92 6.34"/><text class="cls-4" transform="translate(213.92 109.04)">N<tspan class="cls-5" x="18.12" y="0">e</tspan><tspan class="cls-6" x="30.76" y="0">xt-G</tspan></text><rect class="cls-7" x="11.98" y="26.17" width="15.77" height="15.77" rx="4"/><polygon class="cls-3" points="27.76 47.86 12.42 47.86 12.42 47.86 27.76 47.86 27.76 47.86"/></svg>