<svg id="Layer_1" data-name="Layer 1" xmlns="http://www.w3.org/2000/svg" viewBox="0 0 300 204.54"><defs><style>.cls-1{fill:none;}.cls-1,.cls-5{stroke:#4374ba;}.cls-1,.cls-5,.cls-6,.cls-7{stroke-miterlimit:10;}.cls-1,.cls-5,.cls-7{stroke-width:2px;}.cls-2{font-size:24px;font-family:Lato-Bold, Lato;font-weight:700;}.cls-2,.cls-6{fill:#4374ba;}.cls-3{letter-spacing:-0.03em;}.cls-4{letter-spacing:-0.02em;}.cls-5,.cls-8{fill:#4474ba;}.cls-6{stroke:#4474ba;}.cls-7{fill:#fff;stroke:#fff;}</style></defs><rect class="cls-1" x="1" y="1" width="298" height="202.54" rx="5"/><rect class="cls-1" x="1" y="1" width="298" height="10.85" rx="5.38"/><polygon class="cls-1" points="40.91 6.34 7.39 6.34 7.39 6.34 40.91 6.34 40.91 6.34"/><polygon class="cls-1" points="292.4 6.34 257.88 6.34 257.88 6.34 292.4 6.34 292.4 6.34"/><text class="cls-2" transform="translate(213.22 109.04)"><tspan class="cls-3">K</tspan><tspan x="15.84" y="0">-unit</tspan><tspan class="cls-4" x="66.89" y="0">y</tspan></text><rect class="cls-1" x="21.73" y="11.83" width="187.24" height="126.92" rx="2"/><rect class="cls-1" x="25.97" y="17.75" width="149" height="8" rx="3"/><polygon class="cls-1" points="74.65 78.83 28.73 78.83 28.73 78.83 74.65 78.83 74.65 78.83"/><polygon class="cls-1" points="74.65 68.83 28.73 68.83 28.73 68.83 74.65 68.83 74.65 68.83"/><polygon class="cls-1" points="74.65 58.83 28.73 58.83 28.73 58.83 74.65 58.83 74.65 58.83"/><polygon class="cls-1" points="74.65 48.83 28.73 48.83 28.73 48.83 74.65 48.83 74.65 48.83"/><rect class="cls-5" x="180.3" y="38.83" width="12.92" height="12.92" rx="2"/><polygon class="cls-1" points="193.26 55.75 180.26 55.75 180.26 55.75 193.26 55.75 193.26 55.75"/><rect class="cls-5" x="152.16" y="38.83" width="12.92" height="12.92" rx="2"/><polygon class="cls-1" points="165.12 55.75 152.12 55.75 152.12 55.75 165.12 55.75 165.12 55.75"/><rect class="cls-5" x="123.61" y="66.25" width="12.92" height="12.92" rx="2"/><polygon class="cls-1" points="136.57 83.18 123.57 83.18 123.57 83.18 136.57 83.18 136.57 83.18"/><rect class="cls-5" x="95.47" y="66.25" width="12.92" height="12.92" rx="2"/><polygon class="cls-1" points="108.43 83.18 95.43 83.18 95.43 83.18 108.43 83.18 108.43 83.18"/><rect class="cls-5" x="124.01" y="38.83" width="12.92" height="12.92" rx="2"/><polygon class="cls-1" points="136.97 55.75 123.97 55.75 123.97 55.75 136.97 55.75 136.97 55.75"/><rect class="cls-5" x="95.87" y="38.83" width="12.92" height="12.92" rx="2"/><polygon class="cls-1" points="108.83 55.75 95.83 55.75 95.83 55.75 108.83 55.75 108.83 55.75"/><polygon class="cls-1" points="204.97 21.75 192.97 21.75 192.97 21.75 204.97 21.75 204.97 21.75"/><polygon class="cls-1" points="74.65 38.83 28.73 38.83 28.73 38.83 74.65 38.83 74.65 38.83"/><rect class="cls-5" x="178.97" y="16.75" width="10" height="10" rx="2"/><rect class="cls-6" x="1.3" y="12.25" width="20.29" height="191.3" rx="3"/><rect class="cls-7" x="6.59" y="77.15" width="10" height="10" rx="2"/><rect class="cls-7" x="6.59" y="57.15" width="10" height="10" rx="2"/><rect class="cls-7" x="6.59" y="37.15" width="10" height="10" rx="2"/><rect class="cls-7" x="6.59" y="17.15" width="10" height="10" rx="2"/><rect class="cls-5" x="30.49" y="149.06" width="16" height="16" rx="2"/><polygon class="cls-1" points="46.49 171.06 30.93 171.06 30.93 171.06 46.49 171.06 46.49 171.06"/><polygon class="cls-8" points="5.74 11.85 1 9.11 1 14.58 5.74 11.85"/></svg>