<svg id="Layer_1" data-name="Layer 1" xmlns="http://www.w3.org/2000/svg" viewBox="0 0 300 204.39"><defs><style>.cls-1{fill:none;}.cls-1,.cls-2{stroke:#4374ba;}.cls-1,.cls-2,.cls-4{stroke-miterlimit:10;stroke-width:2px;}.cls-2,.cls-6{fill:#4474ba;}.cls-3{fill:#fff;}.cls-4,.cls-5{fill:#4374ba;}.cls-4{stroke:#fff;}.cls-5{font-size:24px;font-family:Lato-Bold, Lato;font-weight:700;}</style></defs><rect class="cls-1" x="1" y="1" width="298" height="202.19" rx="5"/><rect class="cls-2" x="1" y="192.55" width="298" height="10.85" rx="5.38"/><rect class="cls-3" x="2.45" y="194.15" width="8" height="8" rx="4"/><polygon class="cls-4" points="49.91 198.09 16.39 198.09 16.39 198.09 49.91 198.09 49.91 198.09"/><polygon class="cls-4" points="95.7 198.09 62.18 198.09 62.18 198.09 95.7 198.09 95.7 198.09"/><polygon class="cls-4" points="293.52 198.17 242 198.17 242 198.17 293.52 198.17 293.52 198.17"/><rect class="cls-2" x="11.46" y="10.92" width="15.77" height="15.77" rx="4"/><polygon class="cls-1" points="27.23 32.61 11.9 32.61 11.9 32.61 27.23 32.61 27.23 32.61"/><rect class="cls-1" x="1.6" y="68.1" width="90.7" height="123.24" rx="5"/><rect class="cls-2" x="8.5" y="173.59" width="9.86" height="9.86" rx="2"/><rect class="cls-2" x="8.5" y="153.87" width="9.86" height="9.86" rx="2"/><rect class="cls-2" x="8.5" y="134.15" width="9.86" height="9.86" rx="2"/><rect class="cls-2" x="8.5" y="114.44" width="9.86" height="9.86" rx="2"/><rect class="cls-2" x="8.5" y="94.72" width="9.86" height="9.86" rx="2"/><rect class="cls-2" x="8.5" y="75" width="9.86" height="9.86" rx="2"/><rect class="cls-1" x="23.29" y="174.58" width="63.1" height="7.89" rx="3.92"/><polygon class="cls-1" points="56.81 158.8 23.29 158.8 23.29 158.8 56.81 158.8 56.81 158.8"/><polygon class="cls-1" points="56.81 139.09 23.29 139.09 23.29 139.09 56.81 139.09 56.81 139.09"/><polygon class="cls-1" points="56.81 119.37 23.29 119.37 23.29 119.37 56.81 119.37 56.81 119.37"/><polygon class="cls-1" points="56.81 99.65 23.29 99.65 23.29 99.65 56.81 99.65 56.81 99.65"/><polygon class="cls-1" points="56.81 79.93 23.29 79.93 23.29 79.93 56.81 79.93 56.81 79.93"/><text class="cls-5" transform="translate(219.3 108.79)">Classic</text><polygon class="cls-6" points="5.74 191.42 1 188.68 1 194.16 5.74 191.42"/></svg>