<svg id="Layer_1" data-name="Layer 1" xmlns="http://www.w3.org/2000/svg" viewBox="0 0 299 203.97"><defs><style>.cls-1{fill:none;}.cls-1,.cls-2{stroke:#4374ba;}.cls-1,.cls-2,.cls-4{stroke-miterlimit:10;stroke-width:2px;}.cls-2,.cls-8{fill:#4474ba;}.cls-3,.cls-4{fill:#fff;}.cls-4{stroke:#fff;}.cls-5{font-size:24px;fill:#4374ba;font-family:Lato-Bold, Lato;font-weight:700;letter-spacing:-0.02em;}.cls-6{letter-spacing:-0.01em;}.cls-7{letter-spacing:-0.02em;}</style></defs><rect class="cls-1" x="1" y="1" width="297" height="201.84" rx="5"/><rect class="cls-2" x="11.16" y="10.86" width="15.77" height="15.77" rx="4"/><polygon class="cls-1" points="26.93 32.55 11.6 32.55 11.6 32.55 26.93 32.55 26.93 32.55"/><rect class="cls-2" x="2.09" y="186.3" width="295.5" height="16.67" rx="4"/><rect class="cls-3" x="2.52" y="187.67" width="13.94" height="13.94" rx="4"/><polygon class="cls-1" points="291.54 194.63 257.54 194.63 257.54 194.63 291.54 194.63 291.54 194.63"/><rect class="cls-1" x="2.09" y="58.63" width="187.24" height="126.92" rx="5"/><rect class="cls-4" x="89.34" y="189.55" width="10" height="10" rx="2"/><rect class="cls-4" x="69.34" y="189.55" width="10" height="10" rx="2"/><rect class="cls-4" x="49.34" y="189.55" width="10" height="10" rx="2"/><rect class="cls-4" x="29.34" y="189.55" width="10" height="10" rx="2"/><rect class="cls-1" x="8.34" y="63.81" width="176.68" height="9.49" rx="4"/><polygon class="cls-1" points="50.4 124.63 9.09 124.63 9.09 124.63 50.4 124.63 50.4 124.63"/><polygon class="cls-1" points="50.4 114.63 9.09 114.63 9.09 114.63 50.4 114.63 50.4 114.63"/><polygon class="cls-1" points="50.4 104.63 9.09 104.63 9.09 104.63 50.4 104.63 50.4 104.63"/><polygon class="cls-1" points="50.4 94.63 9.09 94.63 9.09 94.63 50.4 94.63 50.4 94.63"/><rect class="cls-2" x="157.66" y="83.63" width="12.92" height="12.92" rx="2"/><polygon class="cls-1" points="170.62 100.56 157.62 100.56 157.62 100.56 170.62 100.56 170.62 100.56"/><rect class="cls-2" x="129.52" y="83.63" width="12.92" height="12.92" rx="2"/><polygon class="cls-1" points="142.48 100.56 129.48 100.56 129.48 100.56 142.48 100.56 142.48 100.56"/><rect class="cls-2" x="100.97" y="109.06" width="12.92" height="12.92" rx="2"/><polygon class="cls-1" points="113.93 125.98 100.93 125.98 100.93 125.98 113.93 125.98 113.93 125.98"/><rect class="cls-2" x="72.83" y="109.06" width="12.92" height="12.92" rx="2"/><polygon class="cls-1" points="85.79 125.98 72.79 125.98 72.79 125.98 85.79 125.98 85.79 125.98"/><rect class="cls-2" x="101.38" y="83.63" width="12.92" height="12.92" rx="2"/><polygon class="cls-1" points="114.34 100.56 101.34 100.56 101.34 100.56 114.34 100.56 114.34 100.56"/><rect class="cls-2" x="73.23" y="83.63" width="12.92" height="12.92" rx="2"/><polygon class="cls-1" points="86.19 100.56 73.19 100.56 73.19 100.56 86.19 100.56 86.19 100.56"/><polygon class="cls-1" points="50.4 84.63 9.09 84.63 9.09 84.63 50.4 84.63 50.4 84.63"/><text class="cls-5" transform="translate(227.62 108.74)">N<tspan class="cls-6" x="18.12" y="0">e</tspan><tspan class="cls-7" x="30.77" y="0">w</tspan></text><polygon class="cls-8" points="5.74 185.56 1 182.82 1 188.29 5.74 185.56"/></svg>